<svg width="75" height="75" viewBox="0 0 75 75" fill="none" xmlns="http://www.w3.org/2000/svg">
<g clip-path="url(#clip0_221_310)">
<path d="M37.5 14.0625C24.5859 14.0625 14.0625 24.5859 14.0625 37.5C14.0625 50.4141 24.5859 60.9375 37.5 60.9375C50.4141 60.9375 60.9375 50.4141 60.9375 37.5C60.9375 24.5859 50.4141 14.0625 37.5 14.0625ZM37.5 56.25C27.1641 56.25 18.75 47.8359 18.75 37.5C18.75 27.1641 27.1641 18.75 37.5 18.75C47.8359 18.75 56.25 27.1641 56.25 37.5C56.25 47.8359 47.8359 56.25 37.5 56.25ZM31.0078 10.125C35.25 9.11719 39.75 9.11719 43.9922 10.125C44.1797 10.1719 44.3438 10.1953 44.5312 10.1953C45.5859 10.1953 46.5469 9.46875 46.8047 8.39062C46.8764 8.09203 46.8884 7.78221 46.8399 7.47897C46.7915 7.17574 46.6836 6.88507 46.5224 6.62369C46.3612 6.36231 46.1499 6.13538 45.9007 5.95594C45.6515 5.7765 45.3693 5.6481 45.0703 5.57812C40.125 4.40625 34.875 4.40625 29.9297 5.57812C28.6641 5.88281 27.8906 7.14844 28.1953 8.39062C28.5 9.63281 29.7422 10.4297 31.0078 10.125ZM43.9922 64.875C39.75 65.8828 35.25 65.8828 31.0078 64.875C30.7092 64.8033 30.3994 64.7913 30.0962 64.8397C29.7929 64.8882 29.5023 64.9961 29.2409 65.1573C28.9795 65.3185 28.7526 65.5297 28.5731 65.7789C28.3937 66.0281 28.2653 66.3104 28.1953 66.6094C27.8906 67.875 28.6875 69.1406 29.9297 69.4219C32.3906 70.0078 34.9453 70.3125 37.5 70.3125C40.0547 70.3125 42.6094 70.0078 45.0703 69.4453C46.3359 69.1406 47.1094 67.875 46.8047 66.6328C46.7399 66.3303 46.6151 66.0438 46.4374 65.7905C46.2598 65.5372 46.0331 65.3222 45.7708 65.1582C45.5084 64.9942 45.2158 64.8847 44.9102 64.836C44.6047 64.7874 44.2925 64.8006 43.9922 64.875ZM69.4453 29.9297C69.3751 29.6308 69.2465 29.3488 69.067 29.0998C68.8875 28.8507 68.6605 28.6396 68.3992 28.4784C68.1379 28.3173 67.8474 28.2093 67.5443 28.1608C67.2411 28.1122 66.9314 28.1239 66.6328 28.1953C65.3672 28.5 64.5938 29.7656 64.8984 31.0078C65.3672 33.1172 65.625 35.2969 65.625 37.5C65.625 39.7031 65.3672 41.8828 64.875 43.9922C64.5703 45.2578 65.3672 46.5234 66.6094 46.8047C66.7969 46.8516 66.9844 46.875 67.1484 46.875C68.2031 46.875 69.1641 46.1484 69.4219 45.0703C70.0078 42.6094 70.3125 40.0547 70.3125 37.5C70.3125 34.9453 70.0078 32.3906 69.4453 29.9297ZM10.125 43.9922C9.1293 39.7213 9.1293 35.2787 10.125 31.0078C10.1967 30.7092 10.2087 30.3994 10.1603 30.0962C10.1118 29.7929 10.0039 29.5023 9.8427 29.2409C9.68152 28.9795 9.47025 28.7526 9.22105 28.5731C8.97185 28.3937 8.68963 28.2653 8.39062 28.1953C8.09203 28.1236 7.78221 28.1116 7.47897 28.1601C7.17574 28.2085 6.88507 28.3164 6.62369 28.4776C6.36231 28.6388 6.13538 28.8501 5.95594 29.0993C5.7765 29.3485 5.6481 29.6307 5.57813 29.9297C4.99219 32.3906 4.6875 34.9453 4.6875 37.5C4.6875 40.0547 4.99219 42.6094 5.55469 45.0703C5.70137 45.676 6.08233 46.1988 6.614 46.5239C7.14567 46.8491 7.78461 46.9501 8.39062 46.8047C9.65625 46.5234 10.4297 45.2578 10.125 43.9922ZM52.2656 13.5469C54.1172 14.6953 55.8281 16.0547 57.3984 17.6016C58.9453 19.1484 60.3047 20.8828 61.4531 22.7344C61.6137 22.9956 61.8244 23.2224 62.0731 23.4017C62.3218 23.581 62.6036 23.7092 62.9022 23.779C63.2008 23.8487 63.5102 23.8586 63.8126 23.808C64.115 23.7575 64.4044 23.6475 64.6641 23.4844C65.7656 22.8047 66.1172 21.3516 65.4375 20.25C62.7406 15.9017 59.0748 12.236 54.7266 9.53906C54.464 9.37551 54.1715 9.26573 53.8662 9.21609C53.5608 9.16645 53.2486 9.17794 52.9477 9.24989C52.6469 9.32184 52.3633 9.45282 52.1134 9.63523C51.8635 9.81764 51.6524 10.0478 51.4922 10.3125C50.8125 11.4375 51.1641 12.8672 52.2656 13.5469ZM22.7344 61.4531C20.8828 60.3047 19.1719 58.9453 17.6016 57.3984C16.0547 55.8516 14.6953 54.1172 13.5469 52.2656C12.8672 51.1641 11.4141 50.8125 10.3125 51.4922C9.21094 52.1719 8.85938 53.625 9.53906 54.7266C12.236 59.0748 15.9017 62.7406 20.25 65.4375C20.625 65.6719 21.0469 65.7891 21.4687 65.7891C22.2422 65.7891 23.0156 65.3906 23.4609 64.6875C23.632 64.4294 23.7491 64.1393 23.8051 63.8348C23.8612 63.5303 23.8551 63.2175 23.7873 62.9154C23.7194 62.6133 23.5911 62.328 23.4102 62.0767C23.2293 61.8254 22.9994 61.6133 22.7344 61.4531ZM64.6641 51.4922C63.5625 50.8125 62.1094 51.1641 61.4297 52.2656C60.2812 54.1172 58.9219 55.8281 57.375 57.3984C55.8281 58.9453 54.0938 60.3281 52.2422 61.4531C51.1406 62.1328 50.7891 63.5859 51.4687 64.6875C51.6293 64.9487 51.84 65.1755 52.0887 65.3548C52.3375 65.5341 52.6192 65.6623 52.9178 65.7321C53.2164 65.8018 53.5258 65.8117 53.8282 65.7611C54.1307 65.7106 54.42 65.6006 54.6797 65.4375C59.0279 62.7406 62.6937 59.0748 65.3906 54.7266C65.5607 54.4681 65.677 54.1781 65.7325 53.8737C65.788 53.5694 65.7817 53.257 65.7139 52.9551C65.6461 52.6533 65.5182 52.3682 65.3378 52.1168C65.1575 51.8655 64.9283 51.6531 64.6641 51.4922ZM10.3359 23.5078C10.7109 23.7422 11.1562 23.8594 11.5547 23.8594C12.3281 23.8594 13.1016 23.4609 13.5469 22.7578C14.6953 20.9062 16.0547 19.1953 17.6016 17.625C19.1484 16.0781 20.8828 14.6953 22.7344 13.5703C23.8359 12.8906 24.1875 11.4375 23.5078 10.3359C22.8281 9.23437 21.375 8.88281 20.2734 9.5625C15.9252 12.2594 12.2594 15.9252 9.5625 20.2734C8.88281 21.375 9.23437 22.8281 10.3359 23.5078Z" fill="#C4C4C4"/>
</g>
<defs>
<clipPath id="clip0_221_310">
<rect width="75" height="75" fill="white"/>
</clipPath>
</defs>
</svg>
