<svg width="64" height="64" viewBox="0 0 64 64" fill="none" xmlns="http://www.w3.org/2000/svg">
<path opacity="0.983" fill-rule="evenodd" clip-rule="evenodd" d="M46.6871 2.68752C51.1074 2.24056 54.2949 3.99056 56.2496 7.93752C57.7864 12.6198 56.5155 16.3073 52.4371 19C49.995 20.1983 47.495 20.365 44.9371 19.5C40.6762 25.6053 36.3845 31.6886 32.0621 37.75C33.2832 38.9295 34.2625 40.2836 34.9996 41.8125C38.3844 40.726 41.7802 39.6635 45.1871 38.625C45.363 35.1461 47.0297 32.6878 50.1871 31.25C53.9999 30.0765 57.0624 31.0973 59.3746 34.3125C61.2331 37.974 60.7124 41.2449 57.8121 44.125C55.4986 45.877 52.9569 46.2936 50.1871 45.375C48.6849 44.7896 47.4765 43.8314 46.5621 42.5C43.1296 43.4285 39.713 44.4494 36.3121 45.5625C36.7581 50.5645 35.1331 54.752 31.4371 58.125C27.5812 61.1194 23.2896 61.9528 18.5621 60.625C12.6167 58.3433 9.45004 54.0099 9.0621 47.625C9.1598 43.8898 10.4931 40.6814 13.0621 38C11.5621 35.9584 10.0621 33.9166 8.5621 31.875C5.77292 32.3238 3.66875 31.3445 2.2496 28.9375C1.12039 25.7408 2.01622 23.3033 4.9371 21.625C8.21719 20.6095 10.613 21.6304 12.1246 24.6875C12.4123 25.6275 12.4956 26.5858 12.3746 27.5625C12.1847 28.256 11.9764 28.9226 11.7496 29.5625C13.244 31.5305 14.7231 33.5096 16.1871 35.5C17.1735 35.176 18.1735 34.8426 19.1871 34.5C22.4857 33.7066 25.6732 34.0191 28.7496 35.4375C33.1075 29.3704 37.42 23.2661 41.6871 17.125C40.5264 15.824 39.8181 14.3031 39.5621 12.5625C39.4085 12.4649 39.2419 12.4024 39.0621 12.375C36.6209 12.1247 34.1834 11.8538 31.7496 11.5625C29.8019 14.0646 27.406 14.5855 24.5621 13.125C22.6472 11.4687 22.1265 9.44785 22.9996 7.06252C24.2832 4.8689 26.1791 4.01474 28.6871 4.50002C30.332 4.99917 31.4154 6.06167 31.9371 7.68752C34.482 7.89617 37.0236 8.14617 39.5621 8.43752C39.7287 8.39586 39.8955 8.35419 40.0621 8.31252C41.315 5.30946 43.5234 3.43446 46.6871 2.68752Z" fill="#C4C4C4"/>
</svg>
