<svg width="84" height="84" viewBox="0 0 84 84" fill="none" xmlns="http://www.w3.org/2000/svg">
<mask id="path-1-inside-1_71_351" fill="white">
<path d="M42.0005 24.9375C39.145 24.9375 36.3537 25.7842 33.9794 27.3707C31.6052 28.9571 29.7547 31.2119 28.662 33.85C27.5692 36.4881 27.2833 39.391 27.8404 42.1916C28.3975 44.9922 29.7725 47.5647 31.7916 49.5839C33.8108 51.603 36.3833 52.978 39.1839 53.5351C41.9845 54.0922 44.8874 53.8062 47.5255 52.7135C50.1636 51.6208 52.4184 49.7703 54.0048 47.396C55.5912 45.0218 56.438 42.2305 56.438 39.375C56.4335 35.5473 54.9109 31.8777 52.2044 29.1711C49.4978 26.4646 45.8282 24.942 42.0005 24.9375ZM42.0005 51.1875C39.6642 51.1875 37.3804 50.4947 35.4378 49.1967C33.4953 47.8988 31.9812 46.0539 31.0872 43.8954C30.1931 41.737 29.9592 39.3619 30.415 37.0705C30.8708 34.7791 31.9958 32.6743 33.6478 31.0223C35.2998 29.3703 37.4046 28.2453 39.696 27.7895C41.9874 27.3337 44.3625 27.5676 46.5209 28.4617C48.6794 29.3557 50.5243 30.8698 51.8222 32.8123C53.1202 34.7549 53.813 37.0387 53.813 39.375C53.8095 42.5068 52.5639 45.5093 50.3494 47.7239C48.1348 49.9384 45.1323 51.184 42.0005 51.1875Z"/>
</mask>
<path d="M42.0005 24.9375C39.145 24.9375 36.3537 25.7842 33.9794 27.3707C31.6052 28.9571 29.7547 31.2119 28.662 33.85C27.5692 36.4881 27.2833 39.391 27.8404 42.1916C28.3975 44.9922 29.7725 47.5647 31.7916 49.5839C33.8108 51.603 36.3833 52.978 39.1839 53.5351C41.9845 54.0922 44.8874 53.8062 47.5255 52.7135C50.1636 51.6208 52.4184 49.7703 54.0048 47.396C55.5912 45.0218 56.438 42.2305 56.438 39.375C56.4335 35.5473 54.9109 31.8777 52.2044 29.1711C49.4978 26.4646 45.8282 24.942 42.0005 24.9375ZM42.0005 51.1875C39.6642 51.1875 37.3804 50.4947 35.4378 49.1967C33.4953 47.8988 31.9812 46.0539 31.0872 43.8954C30.1931 41.737 29.9592 39.3619 30.415 37.0705C30.8708 34.7791 31.9958 32.6743 33.6478 31.0223C35.2998 29.3703 37.4046 28.2453 39.696 27.7895C41.9874 27.3337 44.3625 27.5676 46.5209 28.4617C48.6794 29.3557 50.5243 30.8698 51.8222 32.8123C53.1202 34.7549 53.813 37.0387 53.813 39.375C53.8095 42.5068 52.5639 45.5093 50.3494 47.7239C48.1348 49.9384 45.1323 51.184 42.0005 51.1875Z" fill="#C4C4C4"/>
<path d="M42.0005 24.9375L42.0064 19.9375H42.0005V24.9375ZM56.438 39.375H61.438L61.438 39.3691L56.438 39.375ZM42.0005 51.1875V56.1875L42.006 56.1875L42.0005 51.1875ZM53.813 39.375L58.813 39.3805V39.375H53.813ZM42.0005 19.9375C38.1561 19.9375 34.3981 21.0775 31.2016 23.2133L36.7573 31.528C38.3093 30.491 40.1339 29.9375 42.0005 29.9375V19.9375ZM31.2016 23.2133C28.0051 25.3491 25.5138 28.3849 24.0426 31.9366L33.2814 35.7634C33.9957 34.0389 35.2053 32.565 36.7573 31.528L31.2016 23.2133ZM24.0426 31.9366C22.5714 35.4883 22.1865 39.3966 22.9365 43.1671L32.7443 41.2162C32.3802 39.3855 32.5671 37.4879 33.2814 35.7634L24.0426 31.9366ZM22.9365 43.1671C23.6865 46.9376 25.5377 50.401 28.2561 53.1194L35.3272 46.0483C34.0073 44.7285 33.1085 43.0469 32.7443 41.2162L22.9365 43.1671ZM28.2561 53.1194C30.9745 55.8378 34.4379 57.689 38.2084 58.439L40.1593 48.6312C38.3286 48.267 36.647 47.3682 35.3272 46.0483L28.2561 53.1194ZM38.2084 58.439C41.9789 59.189 45.8872 58.8041 49.4389 57.3329L45.6121 48.0941C43.8876 48.8084 41.99 48.9953 40.1593 48.6312L38.2084 58.439ZM49.4389 57.3329C52.9906 55.8617 56.0264 53.3704 58.1622 50.1739L49.8475 44.6182C48.8105 46.1702 47.3365 47.3798 45.6121 48.0941L49.4389 57.3329ZM58.1622 50.1739C60.298 46.9774 61.438 43.2194 61.438 39.375H51.438C51.438 41.2416 50.8845 43.0662 49.8475 44.6182L58.1622 50.1739ZM61.438 39.3691C61.4319 34.2174 59.3827 29.2784 55.7399 25.6356L48.6688 32.7067C50.4392 34.477 51.435 36.8773 51.438 39.3809L61.438 39.3691ZM55.7399 25.6356C52.0971 21.9928 47.1581 19.9436 42.0064 19.9375L41.9946 29.9375C44.4982 29.9405 46.8985 30.9363 48.6688 32.7067L55.7399 25.6356ZM42.0005 46.1875C40.6531 46.1875 39.336 45.788 38.2157 45.0394L32.66 53.3541C35.4248 55.2015 38.6753 56.1875 42.0005 56.1875V46.1875ZM38.2157 45.0394C37.0954 44.2908 36.2222 43.2269 35.7066 41.982L26.4678 45.8089C27.7403 48.8809 29.8952 51.5067 32.66 53.3541L38.2157 45.0394ZM35.7066 41.982C35.1909 40.7372 35.056 39.3674 35.3189 38.0459L25.511 36.095C24.8623 39.3563 25.1953 42.7368 26.4678 45.8089L35.7066 41.982ZM35.3189 38.0459C35.5818 36.7245 36.2306 35.5106 37.1833 34.5578L30.1123 27.4868C27.761 29.838 26.1598 32.8337 25.511 36.095L35.3189 38.0459ZM37.1833 34.5578C38.1361 33.6051 39.3499 32.9563 40.6714 32.6934L38.7205 22.8855C35.4592 23.5343 32.4635 25.1355 30.1123 27.4868L37.1833 34.5578ZM40.6714 32.6934C41.9929 32.4305 43.3627 32.5654 44.6075 33.0811L48.4344 23.8423C45.3623 22.5698 41.9818 22.2368 38.7205 22.8855L40.6714 32.6934ZM44.6075 33.0811C45.8523 33.5967 46.9163 34.4699 47.6649 35.5902L55.9796 30.0345C54.1322 27.2697 51.5064 25.1148 48.4344 23.8423L44.6075 33.0811ZM47.6649 35.5902C48.4134 36.7105 48.813 38.0276 48.813 39.375H58.813C58.813 36.0498 57.827 32.7993 55.9796 30.0345L47.6649 35.5902ZM48.813 39.3695C48.811 41.1771 48.092 42.9101 46.8138 44.1883L53.8849 51.2594C57.0357 48.1086 58.808 43.8365 58.813 39.3805L48.813 39.3695ZM46.8138 44.1883C45.5356 45.4665 43.8026 46.1855 41.9949 46.1875L42.006 56.1875C46.462 56.1826 50.734 54.4102 53.8849 51.2594L46.8138 44.1883Z" fill="#C4C4C4" mask="url(#path-1-inside-1_71_351)"/>
<mask id="path-3-inside-2_71_351" fill="white">
<path d="M39.1969 44.163L34.9129 40.95L33.3379 43.05L38.5879 46.9875C38.8511 47.185 39.179 47.2764 39.5064 47.2436C39.8338 47.2107 40.137 47.0561 40.3558 46.8103L50.8558 34.9978L48.895 33.2522L39.1969 44.163Z"/>
</mask>
<path d="M39.1969 44.163L34.9129 40.95L33.3379 43.05L38.5879 46.9875C38.8511 47.185 39.179 47.2764 39.5064 47.2436C39.8338 47.2107 40.137 47.0561 40.3558 46.8103L50.8558 34.9978L48.895 33.2522L39.1969 44.163Z" fill="#C4C4C4"/>
<path d="M39.1969 44.163L36.1969 48.163L39.8775 50.9235L42.934 47.4847L39.1969 44.163ZM34.9129 40.95L37.9129 36.95L33.9129 33.95L30.9129 37.95L34.9129 40.95ZM33.3379 43.05L29.3379 40.05L26.3379 44.05L30.3379 47.05L33.3379 43.05ZM38.5879 46.9875L41.5884 42.9879L41.5879 42.9875L38.5879 46.9875ZM40.3558 46.8103L44.0904 50.135L44.0929 50.1321L40.3558 46.8103ZM50.8558 34.9978L54.5929 38.3196L57.9122 34.5854L54.1804 31.2633L50.8558 34.9978ZM48.895 33.2522L52.2196 29.5176L48.4821 26.1905L45.1578 29.9305L48.895 33.2522ZM42.1969 40.163L37.9129 36.95L31.9129 44.95L36.1969 48.163L42.1969 40.163ZM30.9129 37.95L29.3379 40.05L37.3379 46.05L38.9129 43.95L30.9129 37.95ZM30.3379 47.05L35.5879 50.9875L41.5879 42.9875L36.3379 39.05L30.3379 47.05ZM35.5874 50.9872C36.8535 51.9369 38.4302 52.3765 40.005 52.2186L39.0078 42.2685C39.9278 42.1763 40.8488 42.433 41.5884 42.9879L35.5874 50.9872ZM40.005 52.2186C41.5799 52.0608 43.038 51.3171 44.0904 50.135L36.6213 43.4857C37.2361 42.7951 38.0878 42.3607 39.0078 42.2685L40.005 52.2186ZM44.0929 50.1321L54.5929 38.3196L47.1188 31.676L36.6188 43.4885L44.0929 50.1321ZM54.1804 31.2633L52.2196 29.5176L45.5703 36.9868L47.5312 38.7324L54.1804 31.2633ZM45.1578 29.9305L35.4598 40.8413L42.934 47.4847L52.6321 36.5739L45.1578 29.9305Z" fill="#C4C4C4" mask="url(#path-3-inside-2_71_351)"/>
<mask id="path-5-inside-3_71_351" fill="white">
<path d="M72.1879 10.5H72.1065C71.8995 8.8584 71.3075 7.28899 70.3787 5.91968C69.45 4.55037 68.2107 3.41994 66.7621 2.62054C65.3134 1.82114 63.6964 1.37541 62.0427 1.31968C60.3891 1.26395 58.7457 1.5998 57.2465 2.29986C55.7473 2.99991 54.4348 4.04435 53.4159 5.34801C52.3971 6.65168 51.7007 8.17768 51.3837 9.80159C51.0666 11.4255 51.1378 13.1014 51.5914 14.6925C52.0451 16.2837 52.8683 17.7452 53.994 18.9577L51.0435 21.9082C47.3354 19.9792 43.1089 19.2822 38.9778 19.9187C34.8466 20.5551 31.0258 22.4917 28.0702 25.4473C25.1145 28.403 23.1779 32.2238 22.5415 36.3549C21.9051 40.4861 22.602 44.7126 24.5311 48.4207L18.2494 54.7024C16.9291 53.6785 15.3835 52.9845 13.7411 52.6781C12.0986 52.3717 10.4068 52.4616 8.80605 52.9404C7.20535 53.4192 5.74202 54.2731 4.53765 55.4311C3.33328 56.5891 2.42264 58.0179 1.88139 59.5985C1.34015 61.1792 1.18393 62.8663 1.42571 64.5195C1.6675 66.1727 2.3003 67.7443 3.27155 69.1038C4.2428 70.4632 5.52445 71.5713 7.01001 72.3359C8.49556 73.1006 10.1421 73.4996 11.8129 73.5H11.8943C12.1013 75.1415 12.6933 76.711 13.6221 78.0803C14.5509 79.4496 15.7901 80.58 17.2388 81.3794C18.6874 82.1788 20.3045 82.6245 21.9581 82.6803C23.6118 82.736 25.2552 82.4001 26.7544 81.7001C28.2535 81 29.5661 79.9556 30.5849 78.6519C31.6038 77.3483 32.3001 75.8223 32.6172 74.1984C32.9343 72.5744 32.8631 70.8986 32.4094 69.3074C31.9558 67.7162 31.1325 66.2548 30.0068 65.0422L35.4379 59.6059V76.125C35.4379 77.8655 36.1293 79.5347 37.36 80.7654C38.5907 81.9961 40.2599 82.6875 42.0004 82.6875C43.7409 82.6875 45.4101 81.9961 46.6408 80.7654C47.8715 79.5347 48.5629 77.8655 48.5629 76.125V57.914C53.2735 56.2695 57.1784 52.8886 59.4802 48.4619C61.7819 44.0352 62.3069 38.8968 60.9477 34.0961L65.7488 29.2963C67.069 30.3204 68.6145 31.0147 70.2569 31.3215C71.8993 31.6283 73.5913 31.5386 75.1921 31.0601C76.7929 30.5815 78.2565 29.7278 79.4611 28.57C80.6656 27.4121 81.5765 25.9835 82.118 24.4029C82.6595 22.8222 82.816 21.1351 82.5744 19.4819C82.3328 17.8286 81.7002 16.2568 80.7291 14.8972C79.758 13.5376 78.4764 12.4293 76.9909 11.6645C75.5053 10.8997 73.8588 10.5005 72.1879 10.5ZM27.2873 66.0935C28.5479 67.1194 29.4598 68.5106 29.8977 70.0758C30.3356 71.641 30.2779 73.3034 29.7327 74.8345C29.1875 76.3656 28.1814 77.6903 26.8528 78.6264C25.5242 79.5626 23.9382 80.0642 22.3129 80.0625C21.2711 80.0584 20.2403 79.8484 19.2799 79.4446C18.3194 79.0408 17.4483 78.4512 16.7164 77.7096C15.9846 76.9681 15.4066 76.0892 15.0156 75.1235C14.6245 74.1578 14.4282 73.1243 14.4379 72.0825C14.438 71.8895 14.3955 71.6989 14.3135 71.5242C14.2314 71.3496 14.1119 71.1952 13.9634 71.072C13.8149 70.9488 13.641 70.8598 13.4542 70.8115C13.2674 70.7631 13.0722 70.7566 12.8826 70.7923C12.5293 70.8524 12.1713 70.8801 11.8129 70.875C10.5179 70.8748 9.24298 70.5553 8.10096 69.9448C6.95895 69.3342 5.98512 68.4514 5.26574 67.3746C4.54636 66.2979 4.10363 65.0603 3.97676 63.7715C3.84988 62.4828 4.04278 61.1826 4.53837 59.9862C5.03396 58.7898 5.81694 57.7341 6.81797 56.9126C7.819 56.091 9.00718 55.529 10.2773 55.2763C11.5474 55.0237 12.8602 55.0881 14.0994 55.4639C15.3387 55.8398 16.4661 56.5154 17.3819 57.431C17.628 57.6771 17.9618 57.8153 18.3098 57.8153C18.6578 57.8153 18.9916 57.6771 19.2377 57.431L25.942 50.7255C27.9865 53.611 30.767 55.8957 33.9942 57.3418L27.1902 64.1458C27.0601 64.2758 26.9588 64.4316 26.8928 64.6033C26.8269 64.7749 26.7977 64.9585 26.8072 65.1422C26.8168 65.3258 26.8648 65.5054 26.9482 65.6693C27.0315 65.8332 27.1484 65.9777 27.2912 66.0935H27.2873ZM45.9379 76.125C45.9379 77.1693 45.5231 78.1708 44.7847 78.9092C44.0462 79.6476 43.0447 80.0625 42.0004 80.0625C40.9561 80.0625 39.9546 79.6476 39.2162 78.9092C38.4778 78.1708 38.0629 77.1693 38.0629 76.125V58.6687C40.6613 59.1972 43.3395 59.1972 45.9379 58.6687V76.125ZM42.0004 56.4375C38.6258 56.4375 35.3269 55.4368 32.521 53.5619C29.7151 51.6871 27.5282 49.0223 26.2367 45.9045C24.9453 42.7867 24.6074 39.356 25.2658 36.0462C25.9241 32.7364 27.5492 29.6962 29.9354 27.31C32.3216 24.9237 35.3619 23.2987 38.6717 22.6403C41.9815 21.982 45.4122 22.3199 48.53 23.6113C51.6477 24.9027 54.3125 27.0896 56.1874 29.8956C58.0622 32.7015 59.0629 36.0003 59.0629 39.375C59.0577 43.8986 57.2584 48.2355 54.0597 51.4342C50.861 54.6329 46.5241 56.4323 42.0004 56.4375ZM72.1879 28.875C71.1533 28.8778 70.1284 28.6754 69.1725 28.2796C68.2167 27.8837 67.3487 27.3023 66.619 26.5689C66.3729 26.3229 66.0391 26.1846 65.691 26.1846C65.343 26.1846 65.0092 26.3229 64.7631 26.5689L59.9672 31.3687C58.5209 28.1435 56.2367 25.3648 53.3522 23.3218L56.8146 19.8581C56.9447 19.7281 57.046 19.5722 57.1119 19.4006C57.1779 19.229 57.2071 19.0454 57.1975 18.8617C57.188 18.6781 57.14 18.4985 57.0566 18.3346C56.9733 18.1707 56.8564 18.0262 56.7135 17.9104C55.4514 16.8848 54.5381 15.4934 54.0992 13.9275C53.6604 12.3616 53.7176 10.6981 54.2631 9.16609C54.8085 7.63403 55.8153 6.30865 57.1449 5.37232C58.4745 4.43598 60.0617 3.93471 61.6879 3.93748C62.7298 3.94158 63.7606 4.15156 64.721 4.55534C65.6814 4.95913 66.5526 5.54875 67.2844 6.29032C68.0162 7.03189 68.5943 7.91079 68.9853 8.87649C69.3763 9.84219 69.5726 10.8757 69.5629 11.9175C69.5629 12.1104 69.6054 12.301 69.6874 12.4757C69.7694 12.6504 69.8889 12.8048 70.0374 12.928C70.186 13.0512 70.3598 13.1401 70.5466 13.1885C70.7334 13.2368 70.9286 13.2434 71.1182 13.2077C71.4715 13.1476 71.8296 13.1199 72.1879 13.125C74.2765 13.125 76.2795 13.9547 77.7564 15.4315C79.2332 16.9084 80.0629 18.9114 80.0629 21C80.0629 23.0886 79.2332 25.0916 77.7564 26.5684C76.2795 28.0453 74.2765 28.875 72.1879 28.875Z"/>
</mask>
<path d="M72.1879 10.5H72.1065C71.8995 8.8584 71.3075 7.28899 70.3787 5.91968C69.45 4.55037 68.2107 3.41994 66.7621 2.62054C65.3134 1.82114 63.6964 1.37541 62.0427 1.31968C60.3891 1.26395 58.7457 1.5998 57.2465 2.29986C55.7473 2.99991 54.4348 4.04435 53.4159 5.34801C52.3971 6.65168 51.7007 8.17768 51.3837 9.80159C51.0666 11.4255 51.1378 13.1014 51.5914 14.6925C52.0451 16.2837 52.8683 17.7452 53.994 18.9577L51.0435 21.9082C47.3354 19.9792 43.1089 19.2822 38.9778 19.9187C34.8466 20.5551 31.0258 22.4917 28.0702 25.4473C25.1145 28.403 23.1779 32.2238 22.5415 36.3549C21.9051 40.4861 22.602 44.7126 24.5311 48.4207L18.2494 54.7024C16.9291 53.6785 15.3835 52.9845 13.7411 52.6781C12.0986 52.3717 10.4068 52.4616 8.80605 52.9404C7.20535 53.4192 5.74202 54.2731 4.53765 55.4311C3.33328 56.5891 2.42264 58.0179 1.88139 59.5985C1.34015 61.1792 1.18393 62.8663 1.42571 64.5195C1.6675 66.1727 2.3003 67.7443 3.27155 69.1038C4.2428 70.4632 5.52445 71.5713 7.01001 72.3359C8.49556 73.1006 10.1421 73.4996 11.8129 73.5H11.8943C12.1013 75.1415 12.6933 76.711 13.6221 78.0803C14.5509 79.4496 15.7901 80.58 17.2388 81.3794C18.6874 82.1788 20.3045 82.6245 21.9581 82.6803C23.6118 82.736 25.2552 82.4001 26.7544 81.7001C28.2535 81 29.5661 79.9556 30.5849 78.6519C31.6038 77.3483 32.3001 75.8223 32.6172 74.1984C32.9343 72.5744 32.8631 70.8986 32.4094 69.3074C31.9558 67.7162 31.1325 66.2548 30.0068 65.0422L35.4379 59.6059V76.125C35.4379 77.8655 36.1293 79.5347 37.36 80.7654C38.5907 81.9961 40.2599 82.6875 42.0004 82.6875C43.7409 82.6875 45.4101 81.9961 46.6408 80.7654C47.8715 79.5347 48.5629 77.8655 48.5629 76.125V57.914C53.2735 56.2695 57.1784 52.8886 59.4802 48.4619C61.7819 44.0352 62.3069 38.8968 60.9477 34.0961L65.7488 29.2963C67.069 30.3204 68.6145 31.0147 70.2569 31.3215C71.8993 31.6283 73.5913 31.5386 75.1921 31.0601C76.7929 30.5815 78.2565 29.7278 79.4611 28.57C80.6656 27.4121 81.5765 25.9835 82.118 24.4029C82.6595 22.8222 82.816 21.1351 82.5744 19.4819C82.3328 17.8286 81.7002 16.2568 80.7291 14.8972C79.758 13.5376 78.4764 12.4293 76.9909 11.6645C75.5053 10.8997 73.8588 10.5005 72.1879 10.5ZM27.2873 66.0935C28.5479 67.1194 29.4598 68.5106 29.8977 70.0758C30.3356 71.641 30.2779 73.3034 29.7327 74.8345C29.1875 76.3656 28.1814 77.6903 26.8528 78.6264C25.5242 79.5626 23.9382 80.0642 22.3129 80.0625C21.2711 80.0584 20.2403 79.8484 19.2799 79.4446C18.3194 79.0408 17.4483 78.4512 16.7164 77.7096C15.9846 76.9681 15.4066 76.0892 15.0156 75.1235C14.6245 74.1578 14.4282 73.1243 14.4379 72.0825C14.438 71.8895 14.3955 71.6989 14.3135 71.5242C14.2314 71.3496 14.1119 71.1952 13.9634 71.072C13.8149 70.9488 13.641 70.8598 13.4542 70.8115C13.2674 70.7631 13.0722 70.7566 12.8826 70.7923C12.5293 70.8524 12.1713 70.8801 11.8129 70.875C10.5179 70.8748 9.24298 70.5553 8.10096 69.9448C6.95895 69.3342 5.98512 68.4514 5.26574 67.3746C4.54636 66.2979 4.10363 65.0603 3.97676 63.7715C3.84988 62.4828 4.04278 61.1826 4.53837 59.9862C5.03396 58.7898 5.81694 57.7341 6.81797 56.9126C7.819 56.091 9.00718 55.529 10.2773 55.2763C11.5474 55.0237 12.8602 55.0881 14.0994 55.4639C15.3387 55.8398 16.4661 56.5154 17.3819 57.431C17.628 57.6771 17.9618 57.8153 18.3098 57.8153C18.6578 57.8153 18.9916 57.6771 19.2377 57.431L25.942 50.7255C27.9865 53.611 30.767 55.8957 33.9942 57.3418L27.1902 64.1458C27.0601 64.2758 26.9588 64.4316 26.8928 64.6033C26.8269 64.7749 26.7977 64.9585 26.8072 65.1422C26.8168 65.3258 26.8648 65.5054 26.9482 65.6693C27.0315 65.8332 27.1484 65.9777 27.2912 66.0935H27.2873ZM45.9379 76.125C45.9379 77.1693 45.5231 78.1708 44.7847 78.9092C44.0462 79.6476 43.0447 80.0625 42.0004 80.0625C40.9561 80.0625 39.9546 79.6476 39.2162 78.9092C38.4778 78.1708 38.0629 77.1693 38.0629 76.125V58.6687C40.6613 59.1972 43.3395 59.1972 45.9379 58.6687V76.125ZM42.0004 56.4375C38.6258 56.4375 35.3269 55.4368 32.521 53.5619C29.7151 51.6871 27.5282 49.0223 26.2367 45.9045C24.9453 42.7867 24.6074 39.356 25.2658 36.0462C25.9241 32.7364 27.5492 29.6962 29.9354 27.31C32.3216 24.9237 35.3619 23.2987 38.6717 22.6403C41.9815 21.982 45.4122 22.3199 48.53 23.6113C51.6477 24.9027 54.3125 27.0896 56.1874 29.8956C58.0622 32.7015 59.0629 36.0003 59.0629 39.375C59.0577 43.8986 57.2584 48.2355 54.0597 51.4342C50.861 54.6329 46.5241 56.4323 42.0004 56.4375ZM72.1879 28.875C71.1533 28.8778 70.1284 28.6754 69.1725 28.2796C68.2167 27.8837 67.3487 27.3023 66.619 26.5689C66.3729 26.3229 66.0391 26.1846 65.691 26.1846C65.343 26.1846 65.0092 26.3229 64.7631 26.5689L59.9672 31.3687C58.5209 28.1435 56.2367 25.3648 53.3522 23.3218L56.8146 19.8581C56.9447 19.7281 57.046 19.5722 57.1119 19.4006C57.1779 19.229 57.2071 19.0454 57.1975 18.8617C57.188 18.6781 57.14 18.4985 57.0566 18.3346C56.9733 18.1707 56.8564 18.0262 56.7135 17.9104C55.4514 16.8848 54.5381 15.4934 54.0992 13.9275C53.6604 12.3616 53.7176 10.6981 54.2631 9.16609C54.8085 7.63403 55.8153 6.30865 57.1449 5.37232C58.4745 4.43598 60.0617 3.93471 61.6879 3.93748C62.7298 3.94158 63.7606 4.15156 64.721 4.55534C65.6814 4.95913 66.5526 5.54875 67.2844 6.29032C68.0162 7.03189 68.5943 7.91079 68.9853 8.87649C69.3763 9.84219 69.5726 10.8757 69.5629 11.9175C69.5629 12.1104 69.6054 12.301 69.6874 12.4757C69.7694 12.6504 69.8889 12.8048 70.0374 12.928C70.186 13.0512 70.3598 13.1401 70.5466 13.1885C70.7334 13.2368 70.9286 13.2434 71.1182 13.2077C71.4715 13.1476 71.8296 13.1199 72.1879 13.125C74.2765 13.125 76.2795 13.9547 77.7564 15.4315C79.2332 16.9084 80.0629 18.9114 80.0629 21C80.0629 23.0886 79.2332 25.0916 77.7564 26.5684C76.2795 28.0453 74.2765 28.875 72.1879 28.875Z" fill="#C4C4C4" stroke="#C4C4C4" stroke-width="10" mask="url(#path-5-inside-3_71_351)"/>
</svg>
