<svg width="105" height="105" viewBox="0 0 105 105" fill="none" xmlns="http://www.w3.org/2000/svg">
<circle cx="52.5" cy="52.5" r="51" stroke="#CBCBCB" stroke-width="3"/>
<line x1="80.3904" y1="12.3123" x2="64.3904" y2="32.3123" stroke="#CBCBCB"/>
<line x1="64.416" y1="31.7226" x2="75.51" y2="48.3637" stroke="#CBCBCB"/>
<path d="M75.1768 48.1483L102.34 53.1103" stroke="#CBCBCB"/>
<line x1="102.102" y1="58.4895" x2="82.5224" y2="62.5686" stroke="#CBCBCB"/>
<path d="M82.8643 62.3174L75.507 76.2897" stroke="#CBCBCB"/>
<path d="M76 76L85.2031 79.5431" stroke="#CBCBCB"/>
<path d="M84.8886 79.0298L83.8896 92.0684" stroke="#CBCBCB"/>
<path d="M7 72.5L33.8789 67.8044" stroke="#CBCBCB"/>
<path d="M42 86.8485C40.0131 86.8523 32.5 98 32.5 98" stroke="#CBCBCB"/>
<path d="M33.3901 68L41.3754 86.5265" stroke="#CBCBCB"/>
<line x1="3.7034" y1="63.5975" x2="22.7034" y2="49.5975" stroke="#CBCBCB"/>
<path d="M26.5544 23.0822L22.5029 49.931" stroke="#CBCBCB"/>
<path d="M22.4697 12.8292L26.5794 23.338" stroke="#CBCBCB"/>
<line x1="38.7481" y1="100.568" x2="50.7481" y2="93.5681" stroke="white"/>
<path d="M50.3354 93.6147L69.1196 99.622" stroke="white"/>
</svg>
