<svg width="75" height="75" viewBox="0 0 75 75" fill="none" xmlns="http://www.w3.org/2000/svg">
<path d="M0.000488281 7.41344C0.000488281 7.81493 0.220469 8.17906 0.583914 8.3658L4.48617 10.4479L6.61901 14.2573C6.8103 14.6028 7.19287 14.8269 7.59458 14.8269C7.99628 14.8269 8.37885 14.6121 8.57014 14.2573L10.703 10.4479L14.6052 8.3658C14.9591 8.17906 15.1887 7.80559 15.1887 7.41344C15.1887 7.0213 14.9687 6.64782 14.6052 6.46109L10.703 4.37897L8.57014 0.569546C8.37885 0.224084 7.99628 0 7.59458 0C7.19287 0 6.8103 0.214747 6.61901 0.569546L4.48617 4.37897L0.583914 6.46109C0.230033 6.64782 0.000488281 7.0213 0.000488281 7.41344ZM5.83474 6.1343C6.02602 6.03159 6.17905 5.8822 6.2747 5.7048L7.58501 3.36126L8.89533 5.7048C9.00054 5.89154 9.15356 6.04093 9.33529 6.1343L11.7359 7.41344L9.33529 8.69259C9.144 8.79529 8.99097 8.94468 8.89533 9.12208L7.58501 11.4656L6.2747 9.12208C6.16949 8.93535 6.01646 8.78596 5.83474 8.69259L3.43409 7.41344L5.83474 6.1343ZM59.5385 68.2429L63.4408 70.325L65.5736 74.1344C65.7649 74.4799 66.1475 74.704 66.5492 74.704C66.9509 74.704 67.3335 74.4892 67.5247 74.1344L69.6576 70.325L73.5598 68.2429C73.9137 68.0562 74.1433 67.6827 74.1433 67.2905C74.1433 66.8984 73.9233 66.5249 73.5598 66.3382L69.6576 64.2561L67.5247 60.4466C67.3335 60.1012 66.9509 59.8771 66.5492 59.8771C66.1475 59.8771 65.7649 60.0918 65.5736 60.4466L63.4408 64.2561L59.5385 66.3382C59.1846 66.5249 58.9551 66.8984 58.9551 67.2905C58.9551 67.6827 59.1751 68.0562 59.5385 68.2429ZM64.7989 66.0114C64.9902 65.9087 65.1432 65.7593 65.2389 65.5819L66.5492 63.2384L67.8595 65.5819C67.9647 65.7686 68.1177 65.918 68.2995 66.0114L70.7001 67.2905L68.2995 68.5697C68.1082 68.6724 67.9551 68.8218 67.8595 68.9992L66.5492 71.3427L65.2389 68.9992C65.1337 68.8124 64.9806 68.6631 64.7989 68.5697L62.3983 67.2905L64.7989 66.0114ZM37.0719 60.1385C41.5958 60.1385 45.9476 58.8687 49.7159 56.4878C50.5959 57.1694 51.6575 57.5522 52.7861 57.5522C54.1155 57.5522 55.3685 57.048 56.3058 56.133C57.2431 55.218 57.7595 53.9949 57.7595 52.6971C57.7595 51.586 57.3674 50.5496 56.6692 49.7C59.1081 46.0212 60.4089 41.773 60.4089 37.3567C60.4089 24.7893 49.9359 14.5655 37.0623 14.5655C32.5384 14.5655 28.1866 15.8353 24.4183 18.2162C23.5383 17.5346 22.4767 17.1518 21.3481 17.1518C20.0187 17.1518 18.7657 17.6559 17.8284 18.571C16.8911 19.486 16.3746 20.7091 16.3746 22.0069C16.3746 23.118 16.7668 24.1544 17.465 25.004C15.0261 28.6827 13.7253 32.931 13.7253 37.3473C13.7253 49.9147 24.1983 60.1385 37.0719 60.1385ZM54.7372 54.5925C54.2207 55.0966 53.5321 55.3767 52.7957 55.3767C52.0592 55.3767 51.3706 55.0966 50.8541 54.5925C49.7829 53.5467 49.7829 51.8474 50.8541 50.8017C51.3706 50.2975 52.0592 50.0174 52.7957 50.0174C53.5321 50.0174 54.2207 50.2975 54.7372 50.8017C55.2537 51.3059 55.5406 51.9781 55.5406 52.6971C55.5406 53.416 55.2537 54.0883 54.7372 54.5925ZM19.4161 20.1022C19.9326 19.598 20.6212 19.3179 21.3577 19.3179C22.0941 19.3179 22.7827 19.598 23.2992 20.1022C23.8157 20.6064 24.1026 21.2786 24.1026 21.9976C24.1026 22.7165 23.8157 23.3888 23.2992 23.893C22.7827 24.3971 22.0941 24.6772 21.3577 24.6772C20.6212 24.6772 19.9326 24.3971 19.4161 23.893C18.8996 23.3888 18.6127 22.7165 18.6127 21.9976C18.6127 21.2786 18.8996 20.6064 19.4161 20.1022ZM19.2153 26.3672C19.8752 26.6753 20.6021 26.8621 21.3577 26.8621C22.6871 26.8621 23.94 26.3579 24.8773 25.4429C25.8146 24.5279 26.3311 23.3047 26.3311 22.0069C26.3311 21.2693 26.1494 20.5597 25.8242 19.9155C29.1909 17.8427 33.0453 16.7409 37.0623 16.7409C48.7021 16.7409 58.1804 25.9844 58.1804 37.3567C58.1804 41.2781 57.0518 45.0502 54.9285 48.3368C54.2686 48.0287 53.5417 47.8419 52.7861 47.8419C51.4566 47.8419 50.2037 48.3461 49.2664 49.2611C47.7361 50.755 47.4301 52.9772 48.31 54.7885C44.9433 56.8613 41.0793 57.9724 37.0623 57.9724C25.4225 57.9724 15.9442 48.7289 15.9442 37.3567C15.9442 33.4352 17.0728 29.6631 19.1961 26.3765L19.2153 26.3672Z" fill="#C4C4C4"/>
<path d="M9.22089 64.5361C10.5408 65.8245 12.2815 66.4688 14.0126 66.4688C15.6194 66.4688 17.2262 65.9086 18.4983 64.7975C24.0169 68.3642 30.4059 70.2595 37.0627 70.2595C55.6558 70.2595 70.7866 55.4887 70.7866 37.3379C70.7866 30.8394 68.845 24.5931 65.1914 19.2151C67.5443 16.6194 67.4582 12.6326 64.9141 10.149C63.6324 8.89788 61.93 8.20695 60.1223 8.20695C58.4486 8.20695 56.8705 8.80451 55.6367 9.87825C50.118 6.31158 43.729 4.4162 37.0723 4.4162C18.4792 4.4162 3.34839 19.1871 3.34839 37.3379C3.34839 43.8363 5.28995 50.0826 8.94353 55.4607C6.5907 58.0563 6.67678 62.0431 9.22089 64.5267V64.5361ZM17.2358 62.9955C15.4568 64.7321 12.5684 64.7321 10.799 62.9955C9.02004 61.2588 9.02004 58.4391 10.799 56.7118C12.578 54.9751 15.4664 54.9751 17.2358 56.7118C18.0966 57.5521 18.5653 58.6632 18.5653 59.8583C18.5653 61.0534 18.0966 62.1645 17.2358 63.0048V62.9955ZM56.9087 11.6989C57.7695 10.8586 58.9077 10.4011 60.1319 10.4011C61.3561 10.4011 62.4943 10.8679 63.3551 11.6989C65.134 13.4356 65.134 16.2553 63.3551 17.9826C62.4943 18.8229 61.3561 19.2804 60.1319 19.2804C58.9077 19.2804 57.7695 18.8136 56.9087 17.9826C55.1297 16.246 55.1297 13.4262 56.9087 11.6989ZM5.57688 37.3472C5.57688 20.3915 19.7034 6.60102 37.0723 6.60102C43.2221 6.60102 49.1233 8.33767 54.2307 11.5869C52.7769 14.1078 53.1404 17.3757 55.3306 19.5232C56.6122 20.7743 58.3147 21.4653 60.1223 21.4653C61.3083 21.4653 62.4465 21.1665 63.4507 20.6063C66.7791 25.5921 68.5581 31.353 68.5581 37.3565C68.5581 54.3122 54.4315 68.1027 37.0627 68.1027C30.9128 68.1027 25.0116 66.3661 19.9043 63.1169C20.4781 62.1365 20.7842 61.0254 20.7842 59.8676C20.7842 58.103 20.0764 56.441 18.7948 55.1899C16.595 53.0424 13.257 52.6876 10.6747 54.1068C7.34628 49.1209 5.56732 43.3601 5.56732 37.3565L5.57688 37.3472Z" fill="#C4C4C4"/>
<path d="M37.0718 45.2089C41.5097 45.2089 45.125 41.6796 45.125 37.3473C45.125 33.015 41.5097 29.4857 37.0718 29.4857C32.634 29.4857 29.0187 33.015 29.0187 37.3473C29.0187 41.6796 32.634 45.2089 37.0718 45.2089ZM37.0718 31.6518C40.2855 31.6518 42.8965 34.2008 42.8965 37.338C42.8965 40.4751 40.2855 43.0241 37.0718 43.0241C33.8582 43.0241 31.2472 40.4751 31.2472 37.338C31.2472 34.2008 33.8582 31.6518 37.0718 31.6518ZM37.0718 29.1682C37.684 29.1682 38.1909 28.6827 38.1909 28.0758V24.117C38.1909 23.5195 37.6935 23.0246 37.0718 23.0246C36.4502 23.0246 35.9528 23.5101 35.9528 24.117V28.0758C35.9528 28.6734 36.4502 29.1682 37.0718 29.1682ZM37.0718 45.5264C36.4597 45.5264 35.9528 46.0119 35.9528 46.6188V50.5776C35.9528 51.1751 36.4502 51.67 37.0718 51.67C37.6935 51.67 38.1909 51.1845 38.1909 50.5776V46.6188C38.1909 46.0212 37.6935 45.5264 37.0718 45.5264ZM23.5192 38.4397H27.5745C28.1866 38.4397 28.6935 37.9542 28.6935 37.3473C28.6935 36.7404 28.1961 36.2549 27.5745 36.2549H23.5192C22.9071 36.2549 22.4001 36.7404 22.4001 37.3473C22.4001 37.9542 22.8975 38.4397 23.5192 38.4397ZM45.4502 37.3473C45.4502 37.9449 45.9476 38.4397 46.5692 38.4397H50.6245C51.2366 38.4397 51.7435 37.9542 51.7435 37.3473C51.7435 36.7404 51.2462 36.2549 50.6245 36.2549H46.5692C45.9571 36.2549 45.4502 36.7404 45.4502 37.3473Z" fill="#C4C4C4"/>
<path d="M29.5736 31.5584C29.7936 31.7732 30.0805 31.8759 30.3579 31.8759C30.6352 31.8759 30.9317 31.7732 31.1421 31.5584C31.5821 31.1289 31.5821 30.4473 31.1421 30.0178L28.2728 27.2168C27.8424 26.7966 27.1347 26.7966 26.6947 27.2168C26.2548 27.6369 26.2548 28.3279 26.6947 28.7574L29.564 31.5584H29.5736ZM44.5705 43.1361C44.1401 42.7159 43.4323 42.7159 42.9924 43.1361C42.5524 43.5656 42.5524 44.2472 42.9924 44.6767L45.8617 47.4777C46.0816 47.6925 46.3686 47.7952 46.6459 47.7952C46.9233 47.7952 47.2198 47.6925 47.4302 47.4777C47.8702 47.0576 47.8702 46.3666 47.4302 45.9371L44.5609 43.1361H44.5705ZM43.7862 31.8852C44.0731 31.8852 44.3601 31.7825 44.5705 31.5678L47.4398 28.7667C47.8797 28.3465 47.8797 27.6556 47.4398 27.2261C47.0094 26.806 46.3016 26.806 45.8617 27.2261L42.9924 30.0272C42.5524 30.4567 42.5524 31.1383 42.9924 31.5678C43.2123 31.7825 43.4993 31.8852 43.7766 31.8852H43.7862ZM29.5736 43.1361L26.7043 45.9371C26.2643 46.3666 26.2643 47.0482 26.7043 47.4777C26.9243 47.6925 27.2112 47.7952 27.4886 47.7952C27.7659 47.7952 28.0624 47.6925 28.2728 47.4777L31.1421 44.6767C31.5821 44.2472 31.5821 43.5656 31.1421 43.1361C30.7117 42.7159 30.004 42.7159 29.564 43.1361H29.5736Z" fill="#C4C4C4"/>
</svg>
