<svg width="75" height="75" viewBox="0 0 75 75" fill="none" xmlns="http://www.w3.org/2000/svg">
<g clip-path="url(#clip0_222_334)">
<path d="M37.5 0C16.806 0 0 16.806 0 37.5C0 58.194 16.806 75 37.5 75C58.194 75 75 58.194 75 37.5C75 16.806 58.194 0 37.5 0ZM37.5 2.907C42.0441 2.90226 46.5446 3.79381 50.7438 5.53059C54.9429 7.26737 58.7583 9.81529 61.9715 13.0285C65.1847 16.2417 67.7326 20.0571 69.4694 24.2562C71.2062 28.4554 72.0977 32.9559 72.093 37.5C72.093 56.634 56.634 72.189 37.5 72.189C18.366 72.189 2.907 56.634 2.907 37.5C2.90226 32.9559 3.79381 28.4554 5.53059 24.2562C7.26737 20.0571 9.81529 16.2417 13.0285 13.0285C16.2417 9.81529 20.0571 7.26737 24.2562 5.53059C28.4554 3.79381 32.9559 2.90226 37.5 2.907ZM30.093 21C22.941 21 18 26.928 18 33.939C18 38.232 20.853 42.42 24.564 46.311C28.272 50.205 32.943 53.808 37.314 56.721L38.154 57.282L39 56.718C43.377 53.802 48.06 50.124 51.75 46.218C55.44 42.312 58.242 38.157 58.314 33.936C58.428 26.94 53.652 21 46.5 21C43.623 21 40.869 22.506 38.157 24.939C35.514 22.539 32.961 21 30.09 21H30.093ZM30.093 24C32.271 24 34.383 25.104 37.125 27.843L38.157 28.875L39.189 27.843C41.898 25.14 44.322 24 46.5 24C52.032 24 55.407 28.26 55.314 33.939C55.266 36.771 53.052 40.497 49.593 44.157C46.368 47.568 42.141 50.808 38.157 53.532C34.161 50.808 29.952 47.643 26.718 44.25C23.25 40.611 21 36.837 21 33.936C21 28.272 24.561 24 30.093 24Z" fill="#C4C4C4"/>
</g>
<defs>
<clipPath id="clip0_222_334">
<rect width="75" height="75" fill="white"/>
</clipPath>
</defs>
</svg>
