<svg width="200" height="200" viewBox="0 0 200 200" fill="none" xmlns="http://www.w3.org/2000/svg">
<g clip-path="url(#clip0_29_155)">
<path d="M100 200C44.8438 200 0 155.125 0 100C0 44.875 44.8438 0 100 0C155.156 0 200 44.875 200 100C200 155.125 155.156 200 100 200ZM100 3.0625C46.5625 3.0625 3.0625 46.5625 3.0625 100C3.0625 153.438 46.5625 196.938 100 196.938C153.438 196.938 196.938 153.469 196.938 100C196.938 46.5625 153.438 3.0625 100 3.0625Z" fill="#CBCBCB"/>
<path d="M59.875 36.3125C48.5937 36.3125 37.5 34.375 29.4375 32.5312C28.5937 32.3437 28.0937 31.5 28.2812 30.6875C28.4687 29.875 29.2812 29.3437 30.125 29.5312C40.3437 31.875 55.4687 34.3437 69.5 32.7187C70.5937 32.5937 71.6562 32.4687 72.6875 32.3125C86.2187 30.25 99.625 24.75 111.437 16.375C119.219 10.9062 124.969 7.09373 129.062 4.81248C129.812 4.40623 130.75 4.65623 131.156 5.40623C131.562 6.15623 131.312 7.09373 130.562 7.49998C126.562 9.74998 120.875 13.4687 113.187 18.9062C101 27.5312 87.125 33.25 73.0937 35.375C72 35.5312 70.9062 35.6562 69.8125 35.7812C66.5625 36.125 63.2187 36.3125 59.875 36.3125Z" fill="#CBCBCB"/>
<path d="M73.7187 56.2813C67.4687 56.2813 60.6562 55.5313 53.5312 53.5625L51.7812 53.0625C40.4374 49.9063 35.7499 48.625 16.2812 49.9375C15.4687 50 14.6874 49.375 14.6249 48.5C14.5937 47.6563 15.2187 46.9375 16.0624 46.875C36.0624 45.5313 40.9062 46.875 52.5937 50.125L54.3437 50.625C74.1874 56.0938 91.5937 51.7188 100.187 48.5938C103.875 47.2813 107.625 45.375 111.281 42.9375C130.812 29.8438 139.406 18.5938 143.187 11.5C143.594 10.75 144.531 10.4688 145.281 10.875C146.031 11.2813 146.312 12.1875 145.906 12.9688C141.969 20.4063 133.062 32.0938 113 45.5313C109.125 48.125 105.187 50.125 101.25 51.5313C95.3749 53.5938 85.5937 56.2813 73.7187 56.2813Z" fill="#CBCBCB"/>
<path d="M78.9376 82.5C72.9064 82.5 66.3751 81.9062 59.2501 80.5625C55.8751 79.9375 52.5939 79.0937 49.5001 78.1562C45.6251 76.9375 35.4689 75.5625 24.9064 78.9062C16.8751 81.4375 9.06262 79.6875 3.90637 77.7812C3.12512 77.5 2.71887 76.5937 3.00012 75.8125C3.31262 75.0312 4.18762 74.5937 4.96887 74.9062C9.65637 76.6562 16.7814 78.25 23.9689 76C35.2814 72.4062 46.2189 73.9375 50.4064 75.25C53.4064 76.1875 56.5626 76.9687 59.8126 77.5937C99.3126 85.0625 120.531 68.2812 127.813 60.7187C139.438 48.6875 148.813 48.0625 150.594 48.0625C150.625 48.0625 150.656 48.0625 150.688 48.0625C161.563 46.1875 168.781 41.4375 172.156 33.9375C172.5 33.1562 173.406 32.8125 174.188 33.1562C174.969 33.5 175.313 34.4062 174.969 35.1875C172.344 41.0625 166.063 48.5937 151.063 51.125C150.938 51.1562 150.813 51.1562 150.719 51.1562C150.656 51.1562 141.625 50.875 130.063 62.875C123.719 69.3437 107.5 82.5 78.9376 82.5ZM34.5001 118.812C22.7189 118.812 11.8751 117.687 2.18762 115.406C1.37512 115.219 0.843871 114.375 1.03137 113.562C1.21887 112.75 2.03137 112.219 2.87512 112.406C28.4689 118.406 62.4376 116.25 101 106.156C159.281 90.9375 180.031 68.375 187.219 56.2812C187.656 55.5625 188.594 55.3125 189.313 55.75C190.031 56.1875 190.281 57.125 189.844 57.8437C182.406 70.3437 161.094 93.625 101.781 109.125C77.2501 115.562 54.5001 118.812 34.5001 118.812ZM45.8751 150.781C31.5939 150.781 19.5314 148.781 12.5314 147.281C11.6876 147.094 11.1564 146.281 11.3439 145.469C11.5314 144.625 12.3439 144.125 13.1564 144.281C27.9064 147.406 65.7189 152.906 98.2189 136.125C103.406 133.437 108.188 129.937 112.156 126.844C117.813 122.437 130.313 115.156 149.688 115.281C165.469 115.406 179.875 109.906 189.969 99.7187C192.406 97.25 194.656 94.5937 196.844 91.5937C197.344 90.9062 198.313 90.75 199 91.25C199.688 91.75 199.844 92.7187 199.344 93.4062C197.063 96.5312 194.719 99.3125 192.188 101.906C181.656 112.562 166.813 118.406 150.344 118.406C149.906 118.406 149.469 118.406 149 118.406C130.813 118.406 119.313 125.219 114.063 129.312C109.969 132.5 105.063 136.125 99.6251 138.906C81.7814 148.094 62.3439 150.781 45.8751 150.781Z" fill="#CBCBCB"/>
<path d="M42.9688 166.781C37.125 166.781 31.1875 166.437 25.25 165.75C24.4062 165.75 23.7812 165.062 23.7812 164.219C23.7812 163.375 24.5312 162.687 25.4062 162.687H25.4375C43.1875 164.75 60.625 163.687 76.0312 159.594C79.5 158.687 84.0938 157.562 88.8125 157.125C95.125 156.531 104.688 156.25 114.188 158.375C124.906 160.812 146.062 161.656 167.031 139.687C170.281 136.25 173.719 133.031 177.219 130.094C184.688 123.844 191.094 118.625 196.219 114.625C196.875 114.094 197.844 114.219 198.375 114.906C198.906 115.562 198.781 116.531 198.094 117.062C192.969 121.062 186.594 126.25 179.156 132.469C175.75 135.312 172.406 138.469 169.25 141.812C147.219 164.875 124.875 163.969 113.5 161.375C104.406 159.312 95.2188 159.594 89.125 160.187C84.625 160.594 80.1875 161.687 76.8438 162.562C66.25 165.375 54.7812 166.781 42.9688 166.781ZM59.4062 190.969C59.2188 190.969 59.0312 190.969 58.8125 190.969C57.9687 190.969 57.25 190.281 57.25 189.437C57.25 188.594 57.9062 187.906 58.7812 187.906H58.8125C73.6562 187.906 101.969 186.719 126.5 178.125C149.25 170.125 171.031 158.25 181.969 151.875C182.938 151.312 184.312 152.094 184.312 153.219C184.312 153.875 183.906 154.437 183.344 154.656C172.25 161.094 150.375 173 127.5 181.031C102.906 189.625 74.5312 190.969 59.4062 190.969Z" fill="#CBCBCB"/>
<path d="M129.438 152.406C122.969 152.406 117.875 150 116.281 145.625C115.063 142.281 116.125 138.406 119.219 134.719C122.125 131.281 126.594 128.344 131.75 126.469C142.875 122.438 153.469 124.5 155.906 131.219C157.125 134.563 156.063 138.438 152.969 142.125C150.063 145.563 145.594 148.5 140.438 150.375C136.594 151.75 132.813 152.406 129.438 152.406ZM142.719 127.5C139.656 127.5 136.219 128.094 132.781 129.344C128.125 131.031 124.125 133.656 121.563 136.688C119.188 139.5 118.344 142.281 119.156 144.563C120.938 149.469 130.219 150.781 139.375 147.469C144.031 145.781 148.031 143.156 150.594 140.125C152.969 137.313 153.813 134.531 153 132.25C151.875 129.156 147.844 127.5 142.719 127.5Z" fill="#CBCBCB"/>
<path d="M142.594 141.531C139.875 141.531 137.625 139.313 137.625 136.563C137.625 133.844 139.844 131.594 142.594 131.594C145.313 131.594 147.531 133.813 147.531 136.563C147.562 139.313 145.344 141.531 142.594 141.531ZM142.594 134.687C141.563 134.687 140.719 135.531 140.719 136.563C140.719 137.594 141.563 138.437 142.594 138.437C143.625 138.437 144.469 137.594 144.469 136.563C144.469 135.531 143.625 134.687 142.594 134.687Z" fill="#CBCBCB"/>
</g>
<defs>
<clipPath id="clip0_29_155">
<rect width="200" height="200" fill="white"/>
</clipPath>
</defs>
</svg>
