<svg width="253" height="116" viewBox="0 0 253 116" fill="none" xmlns="http://www.w3.org/2000/svg">
<path d="M116.957 36.3906C116.957 35.2318 117.178 34.1445 117.621 33.1289C118.064 32.1133 118.663 31.2279 119.418 30.4727C120.186 29.7044 121.078 29.099 122.094 28.6562C123.109 28.2135 124.197 27.9922 125.355 27.9922H138.207V33.5977H125.355C124.965 33.5977 124.6 33.6693 124.262 33.8125C123.923 33.9557 123.624 34.1576 123.363 34.418C123.116 34.6654 122.921 34.9583 122.777 35.2969C122.634 35.6354 122.562 36 122.562 36.3906C122.562 36.7812 122.634 37.1523 122.777 37.5039C122.921 37.8424 123.116 38.1419 123.363 38.4023C123.624 38.6497 123.923 38.8451 124.262 38.9883C124.6 39.1315 124.965 39.2031 125.355 39.2031H130.961C132.12 39.2031 133.207 39.4245 134.223 39.8672C135.251 40.2969 136.143 40.8958 136.898 41.6641C137.667 42.4193 138.266 43.3112 138.695 44.3398C139.138 45.3555 139.359 46.4427 139.359 47.6016C139.359 48.7604 139.138 49.8477 138.695 50.8633C138.266 51.8789 137.667 52.7708 136.898 53.5391C136.143 54.2943 135.251 54.8932 134.223 55.3359C133.207 55.7786 132.12 56 130.961 56H118.52V50.3945H130.961C131.352 50.3945 131.716 50.3229 132.055 50.1797C132.393 50.0365 132.686 49.8411 132.934 49.5938C133.194 49.3333 133.396 49.0339 133.539 48.6953C133.682 48.3568 133.754 47.9922 133.754 47.6016C133.754 47.2109 133.682 46.8464 133.539 46.5078C133.396 46.1693 133.194 45.8763 132.934 45.6289C132.686 45.3685 132.393 45.1667 132.055 45.0234C131.716 44.8802 131.352 44.8086 130.961 44.8086H125.355C124.197 44.8086 123.109 44.5872 122.094 44.1445C121.078 43.7018 120.186 43.1029 119.418 42.3477C118.663 41.5794 118.064 40.6875 117.621 39.6719C117.178 38.6432 116.957 37.5495 116.957 36.3906ZM162.699 45.3555C162.699 46.918 162.419 48.3763 161.859 49.7305C161.299 51.0716 160.538 52.237 159.574 53.2266C158.611 54.2031 157.478 54.9779 156.176 55.5508C154.887 56.1107 153.5 56.3906 152.016 56.3906C150.544 56.3906 149.158 56.1107 147.855 55.5508C146.566 54.9779 145.434 54.2031 144.457 53.2266C143.493 52.237 142.732 51.0716 142.172 49.7305C141.612 48.3763 141.332 46.918 141.332 45.3555C141.332 43.7669 141.612 42.2956 142.172 40.9414C142.732 39.5872 143.493 38.4219 144.457 37.4453C145.434 36.4557 146.566 35.681 147.855 35.1211C149.158 34.5612 150.544 34.2812 152.016 34.2812C153.5 34.2812 154.887 34.5482 156.176 35.082C157.478 35.6029 158.611 36.3516 159.574 37.3281C160.538 38.2917 161.299 39.457 161.859 40.8242C162.419 42.1784 162.699 43.6888 162.699 45.3555ZM157.328 45.3555C157.328 44.4961 157.185 43.7214 156.898 43.0312C156.625 42.3281 156.247 41.7292 155.766 41.2344C155.284 40.7266 154.717 40.3424 154.066 40.082C153.428 39.8086 152.745 39.6719 152.016 39.6719C151.286 39.6719 150.596 39.8086 149.945 40.082C149.307 40.3424 148.747 40.7266 148.266 41.2344C147.797 41.7292 147.426 42.3281 147.152 43.0312C146.879 43.7214 146.742 44.4961 146.742 45.3555C146.742 46.1628 146.879 46.9115 147.152 47.6016C147.426 48.2917 147.797 48.8906 148.266 49.3984C148.747 49.9062 149.307 50.3099 149.945 50.6094C150.596 50.8958 151.286 51.0391 152.016 51.0391C152.745 51.0391 153.428 50.9023 154.066 50.6289C154.717 50.3555 155.284 49.9714 155.766 49.4766C156.247 48.9818 156.625 48.3828 156.898 47.6797C157.185 46.9766 157.328 46.2018 157.328 45.3555ZM171.02 56H165.648V26.7617H171.02V56ZM195.355 56H194.066L191.996 53.1289C191.488 53.5846 190.948 54.0143 190.375 54.418C189.815 54.8086 189.223 55.1536 188.598 55.4531C187.973 55.7396 187.328 55.9674 186.664 56.1367C186.013 56.306 185.349 56.3906 184.672 56.3906C183.201 56.3906 181.814 56.1432 180.512 55.6484C179.223 55.1536 178.09 54.4375 177.113 53.5C176.15 52.5495 175.388 51.3906 174.828 50.0234C174.268 48.6562 173.988 47.1003 173.988 45.3555C173.988 43.7279 174.268 42.237 174.828 40.8828C175.388 39.5156 176.15 38.3438 177.113 37.3672C178.09 36.3906 179.223 35.6354 180.512 35.1016C181.814 34.5547 183.201 34.2812 184.672 34.2812C185.349 34.2812 186.02 34.3659 186.684 34.5352C187.348 34.7044 187.992 34.9388 188.617 35.2383C189.242 35.5378 189.835 35.8893 190.395 36.293C190.967 36.6966 191.501 37.1328 191.996 37.6016L194.066 35.1211H195.355V56ZM189.984 45.3555C189.984 44.6263 189.841 43.9232 189.555 43.2461C189.281 42.556 188.904 41.9505 188.422 41.4297C187.94 40.8958 187.374 40.4727 186.723 40.1602C186.085 39.8346 185.401 39.6719 184.672 39.6719C183.943 39.6719 183.253 39.7956 182.602 40.043C181.964 40.2904 181.404 40.6549 180.922 41.1367C180.453 41.6185 180.082 42.2174 179.809 42.9336C179.535 43.6367 179.398 44.444 179.398 45.3555C179.398 46.2669 179.535 47.0807 179.809 47.7969C180.082 48.5 180.453 49.0924 180.922 49.5742C181.404 50.056 181.964 50.4206 182.602 50.668C183.253 50.9154 183.943 51.0391 184.672 51.0391C185.401 51.0391 186.085 50.8828 186.723 50.5703C187.374 50.2448 187.94 49.8216 188.422 49.3008C188.904 48.7669 189.281 48.1615 189.555 47.4844C189.841 46.7943 189.984 46.0846 189.984 45.3555ZM204.77 56H199.438V35.082H200.727L202.484 37.5625C203.344 36.7812 204.32 36.1823 205.414 35.7656C206.508 35.3359 207.641 35.1211 208.812 35.1211H213.52V40.4336H208.812C208.253 40.4336 207.725 40.5378 207.23 40.7461C206.736 40.9544 206.306 41.2409 205.941 41.6055C205.577 41.9701 205.29 42.3997 205.082 42.8945C204.874 43.3893 204.77 43.9167 204.77 44.4766V56ZM116.957 70.3906C116.957 69.2318 117.178 68.1445 117.621 67.1289C118.064 66.1133 118.663 65.2279 119.418 64.4727C120.186 63.7044 121.078 63.099 122.094 62.6562C123.109 62.2135 124.197 61.9922 125.355 61.9922H138.207V67.5977H125.355C124.965 67.5977 124.6 67.6693 124.262 67.8125C123.923 67.9557 123.624 68.1576 123.363 68.418C123.116 68.6654 122.921 68.9583 122.777 69.2969C122.634 69.6354 122.562 70 122.562 70.3906C122.562 70.7812 122.634 71.1523 122.777 71.5039C122.921 71.8424 123.116 72.1419 123.363 72.4023C123.624 72.6497 123.923 72.8451 124.262 72.9883C124.6 73.1315 124.965 73.2031 125.355 73.2031H130.961C132.12 73.2031 133.207 73.4245 134.223 73.8672C135.251 74.2969 136.143 74.8958 136.898 75.6641C137.667 76.4193 138.266 77.3112 138.695 78.3398C139.138 79.3555 139.359 80.4427 139.359 81.6016C139.359 82.7604 139.138 83.8477 138.695 84.8633C138.266 85.8789 137.667 86.7708 136.898 87.5391C136.143 88.2943 135.251 88.8932 134.223 89.3359C133.207 89.7786 132.12 90 130.961 90H118.52V84.3945H130.961C131.352 84.3945 131.716 84.3229 132.055 84.1797C132.393 84.0365 132.686 83.8411 132.934 83.5938C133.194 83.3333 133.396 83.0339 133.539 82.6953C133.682 82.3568 133.754 81.9922 133.754 81.6016C133.754 81.2109 133.682 80.8464 133.539 80.5078C133.396 80.1693 133.194 79.8763 132.934 79.6289C132.686 79.3685 132.393 79.1667 132.055 79.0234C131.716 78.8802 131.352 78.8086 130.961 78.8086H125.355C124.197 78.8086 123.109 78.5872 122.094 78.1445C121.078 77.7018 120.186 77.1029 119.418 76.3477C118.663 75.5794 118.064 74.6875 117.621 73.6719C117.178 72.6432 116.957 71.5495 116.957 70.3906ZM147.328 97.9688V92.5977L150.297 92.6367C150.818 92.6367 151.319 92.5521 151.801 92.3828C152.283 92.2135 152.725 91.9792 153.129 91.6797C153.546 91.3802 153.91 91.0221 154.223 90.6055C154.535 90.2018 154.789 89.7591 154.984 89.2773C154.398 89.5247 153.799 89.7721 153.188 90.0195C152.589 90.2669 151.983 90.3906 151.371 90.3906C150.082 90.3906 148.871 90.1628 147.738 89.707C146.605 89.2513 145.609 88.6068 144.75 87.7734C143.904 86.9271 143.233 85.9049 142.738 84.707C142.257 83.4961 142.016 82.1419 142.016 80.6445V69.082H147.328V80.6445C147.328 81.3867 147.432 82.0378 147.641 82.5977C147.862 83.1445 148.155 83.6068 148.52 83.9844C148.884 84.349 149.307 84.6224 149.789 84.8047C150.284 84.987 150.811 85.0781 151.371 85.0781C151.918 85.0781 152.432 84.9544 152.914 84.707C153.409 84.4466 153.839 84.1081 154.203 83.6914C154.568 83.2747 154.854 82.806 155.062 82.2852C155.271 81.7513 155.375 81.2044 155.375 80.6445V69.082H160.746V87.3633C160.733 88.8346 160.447 90.2148 159.887 91.5039C159.327 92.793 158.559 93.9193 157.582 94.8828C156.618 95.8464 155.492 96.6081 154.203 97.168C152.914 97.7279 151.534 98.0078 150.062 98.0078L147.328 97.9688ZM176.312 90H164.125V84.6875H176.312C176.677 84.6875 176.99 84.5573 177.25 84.2969C177.51 84.0365 177.641 83.724 177.641 83.3594C177.641 82.9818 177.51 82.7344 177.25 82.6172C176.99 82.5 176.677 82.4414 176.312 82.4414H170.766C169.841 82.4414 168.975 82.2656 168.168 81.9141C167.361 81.5625 166.658 81.0872 166.059 80.4883C165.46 79.8763 164.984 79.1667 164.633 78.3594C164.294 77.5521 164.125 76.6862 164.125 75.7617C164.125 74.8372 164.294 73.9714 164.633 73.1641C164.984 72.3568 165.46 71.6536 166.059 71.0547C166.658 70.4557 167.361 69.987 168.168 69.6484C168.975 69.2969 169.841 69.1211 170.766 69.1211H181.566V74.4336H170.766C170.401 74.4336 170.089 74.5638 169.828 74.8242C169.568 75.0846 169.438 75.3971 169.438 75.7617C169.438 76.1393 169.568 76.4648 169.828 76.7383C170.089 76.9987 170.401 77.1289 170.766 77.1289H176.312C177.224 77.1289 178.083 77.2852 178.891 77.5977C179.698 77.8971 180.401 78.3203 181 78.8672C181.599 79.4141 182.074 80.0716 182.426 80.8398C182.777 81.6081 182.953 82.4479 182.953 83.3594C182.953 84.2839 182.777 85.1497 182.426 85.957C182.074 86.7513 181.599 87.4544 181 88.0664C180.401 88.6654 179.698 89.1406 178.891 89.4922C178.083 89.8307 177.224 90 176.312 90ZM196.293 90C195.004 90 193.793 89.7591 192.66 89.2773C191.527 88.7826 190.531 88.112 189.672 87.2656C188.826 86.4062 188.155 85.4102 187.66 84.2773C187.178 83.1445 186.938 81.9336 186.938 80.6445V74.4336H184.34V69.1211H186.938V60.7617H192.25V69.1211H200.336V74.4336H192.25V80.6445C192.25 81.2044 192.354 81.7318 192.562 82.2266C192.771 82.7083 193.057 83.1315 193.422 83.4961C193.786 83.8607 194.216 84.1536 194.711 84.375C195.206 84.5833 195.733 84.6875 196.293 84.6875H200.336V90H196.293ZM211.664 84.8828C211.872 84.9479 212.081 84.9935 212.289 85.0195C212.497 85.0326 212.706 85.0391 212.914 85.0391C213.435 85.0391 213.936 84.9674 214.418 84.8242C214.9 84.681 215.349 84.4792 215.766 84.2188C216.195 83.9453 216.573 83.6198 216.898 83.2422C217.237 82.8516 217.51 82.4219 217.719 81.9531L221.625 85.8789C221.13 86.582 220.557 87.2135 219.906 87.7734C219.268 88.3333 218.572 88.8086 217.816 89.1992C217.074 89.5898 216.286 89.8828 215.453 90.0781C214.633 90.2865 213.786 90.3906 212.914 90.3906C211.443 90.3906 210.056 90.1172 208.754 89.5703C207.465 89.0234 206.332 88.2617 205.355 87.2852C204.392 86.3086 203.63 85.1497 203.07 83.8086C202.51 82.4544 202.23 80.9701 202.23 79.3555C202.23 77.7018 202.51 76.1914 203.07 74.8242C203.63 73.457 204.392 72.2917 205.355 71.3281C206.332 70.3646 207.465 69.6159 208.754 69.082C210.056 68.5482 211.443 68.2812 212.914 68.2812C213.786 68.2812 214.639 68.3854 215.473 68.5938C216.306 68.8021 217.094 69.1016 217.836 69.4922C218.591 69.8828 219.294 70.3646 219.945 70.9375C220.596 71.4974 221.169 72.1289 221.664 72.832L211.664 84.8828ZM214.398 73.8867C214.151 73.7956 213.904 73.737 213.656 73.7109C213.422 73.6849 213.174 73.6719 212.914 73.6719C212.185 73.6719 211.495 73.8086 210.844 74.082C210.206 74.3424 209.646 74.7201 209.164 75.2148C208.695 75.7096 208.324 76.3086 208.051 77.0117C207.777 77.7018 207.641 78.4831 207.641 79.3555C207.641 79.5508 207.647 79.7721 207.66 80.0195C207.686 80.2669 207.719 80.5208 207.758 80.7812C207.81 81.0286 207.868 81.2695 207.934 81.5039C207.999 81.7383 208.083 81.9466 208.188 82.1289L214.398 73.8867ZM250.961 90H245.648V76.7188C245.648 76.3542 245.577 76.0091 245.434 75.6836C245.303 75.3581 245.115 75.0716 244.867 74.8242C244.62 74.5768 244.333 74.388 244.008 74.2578C243.682 74.1146 243.337 74.043 242.973 74.043C242.608 74.043 242.263 74.1146 241.938 74.2578C241.625 74.388 241.345 74.5768 241.098 74.8242C240.863 75.0716 240.674 75.3581 240.531 75.6836C240.401 76.0091 240.336 76.3542 240.336 76.7188V90H235.004V76.7188C235.004 76.3542 234.932 76.0091 234.789 75.6836C234.659 75.3581 234.47 75.0716 234.223 74.8242C233.975 74.5768 233.689 74.388 233.363 74.2578C233.038 74.1146 232.693 74.043 232.328 74.043C231.964 74.043 231.618 74.1146 231.293 74.2578C230.98 74.388 230.701 74.5768 230.453 74.8242C230.219 75.0716 230.03 75.3581 229.887 75.6836C229.757 76.0091 229.691 76.3542 229.691 76.7188V90H224.359V69.082H225.648L227.094 70.6836C227.836 70.0586 228.65 69.5768 229.535 69.2383C230.434 68.8867 231.365 68.7109 232.328 68.7109C233.305 68.7109 234.255 68.8932 235.18 69.2578C236.117 69.6224 236.938 70.2539 237.641 71.1523C237.966 70.7096 238.337 70.332 238.754 70.0195C239.171 69.707 239.607 69.4531 240.062 69.2578C240.531 69.0625 241.013 68.9258 241.508 68.8477C242.003 68.7565 242.491 68.7109 242.973 68.7109C244.079 68.7109 245.115 68.9193 246.078 69.3359C247.055 69.7526 247.901 70.3255 248.617 71.0547C249.346 71.7708 249.919 72.6172 250.336 73.5938C250.753 74.5703 250.961 75.612 250.961 76.7188V90Z" fill="#B0B0B0"/>
<path fill-rule="evenodd" clip-rule="evenodd" d="M58.0024 22.9583C38.6493 22.9583 22.9606 38.647 22.9606 58C22.9606 67.2065 26.511 75.5837 32.3173 81.837C41.7037 79.6702 53.2735 75.2709 65.147 68.9451C76.2323 63.0387 85.5906 56.5152 92.2345 50.4769C88.7917 34.7394 74.7726 22.9583 58.0024 22.9583ZM93.018 59.3582C86.3388 64.8019 77.9781 70.3235 68.556 75.3434C58.303 80.8061 48.1352 84.9594 39.1543 87.5462C44.5966 91.0252 51.0642 93.0417 58.0024 93.0417C76.9003 93.0417 92.3046 78.0815 93.018 59.3582ZM30.0186 89.7105C37.4751 96.2955 47.272 100.292 58.0024 100.292C81.3595 100.292 100.294 81.3571 100.294 58C100.294 56.3349 100.198 54.6925 100.01 53.0772C100.156 52.9318 100.299 52.7863 100.442 52.6408C104.085 48.922 106.932 45.195 108.524 41.6782C110.09 38.2174 110.74 34.214 108.583 30.7664C106.554 27.5232 102.854 26.12 99.1312 25.62C95.4023 25.1192 90.9005 25.4081 85.986 26.2897C78.5296 19.7045 68.7324 15.7083 58.0024 15.7083C34.6452 15.7083 15.7106 34.643 15.7106 58C15.7106 59.6651 15.8068 61.3074 15.994 62.9227C12.325 66.6033 9.44766 70.2747 7.75802 73.733C5.98888 77.3541 5.14614 81.5963 7.42167 85.2334C9.51335 88.5766 13.3777 89.9677 17.245 90.4268C20.8883 90.8599 25.2511 90.5655 30.0186 89.7105ZM24.0495 83.2194C21.4341 79.7041 19.3517 75.7683 17.922 71.5328C16.264 73.5169 15.0475 75.3285 14.2721 76.9157C12.9322 79.6582 13.2659 80.9056 13.5678 81.388C13.9198 81.9506 15.0422 82.8641 18.1003 83.2276C19.7539 83.4243 21.7483 83.4272 24.0495 83.2194ZM91.9551 32.7807C94.3853 32.5612 96.468 32.5774 98.166 32.8054C101.039 33.1913 102.097 34.0693 102.437 34.6118C102.723 35.0701 103.043 36.2042 101.919 38.6893C101.165 40.3558 99.8905 42.3038 98.0824 44.4673C96.6526 40.2315 94.5704 36.2961 91.9551 32.7807Z" fill="url(#paint0_linear_25_66)"/>
<defs>
<linearGradient id="paint0_linear_25_66" x1="58" y1="15.7083" x2="58" y2="100.292" gradientUnits="userSpaceOnUse">
<stop stop-color="#854D9C"/>
<stop offset="1" stop-color="#CD4ED3"/>
</linearGradient>
</defs>
</svg>
