<svg width="85" height="85" viewBox="0 0 85 85" fill="none" xmlns="http://www.w3.org/2000/svg">
<circle cx="42.5" cy="42.5" r="41" stroke="#CBCBCB" stroke-width="3"/>
<path d="M28.5215 13.4113C29.0013 13.3131 29.3851 13.3211 29.6816 13.4142L29.8027 13.4601C31.3433 14.1203 32.1532 15.4356 32.5732 17.4757C32.9981 19.5394 33 22.2306 33 25.5001C33 25.8328 32.8782 26.2951 32.6123 26.8771C32.3502 27.4506 31.9656 28.1021 31.4834 28.8019C30.5194 30.2009 29.1898 31.7569 27.7422 33.2101C26.2946 34.6632 24.7425 36.0012 23.3398 36.9718C22.6382 37.4573 21.9825 37.8444 21.4033 38.1085C20.8163 38.3762 20.3448 38.5001 20 38.5001C18.3926 38.5 17.2489 37.9046 16.4307 36.9747C15.5977 36.0279 15.0766 34.7023 14.8047 33.2218C14.2927 30.4341 14.6935 27.2722 15.3291 25.5265L15.46 25.1974C15.8584 24.2677 16.7517 22.9693 17.9561 21.5499C19.1525 20.14 20.6281 18.6428 22.1582 17.3156C23.6914 15.9856 25.2626 14.8412 26.6504 14.1241C27.3445 13.7655 27.9759 13.5229 28.5215 13.4113Z" fill="#CBCBCB" stroke="#CBCBCB"/>
<path d="M45.0371 74.6536C44.3207 74.6334 43.7449 74.5026 43.3111 74.2724L43.1339 74.1674C41.0973 72.8293 40.3316 70.8777 40.2984 68.1937C40.2647 65.4728 40.9867 62.0936 41.8639 58.0044C41.9571 57.5699 42.2591 57.0141 42.7884 56.358C43.3108 55.7105 44.0231 55.0027 44.8821 54.2662C46.5997 52.7938 48.8659 51.2362 51.2654 49.8426C53.6647 48.4492 56.1823 47.2288 58.3978 46.4247C59.5056 46.0227 60.5291 45.7285 61.4185 45.5665C62.3151 45.4033 63.0406 45.3812 63.5693 45.4946C65.8673 45.9876 67.3435 47.1151 68.2522 48.5646C69.1702 50.029 69.536 51.8664 69.5146 53.8074C69.4741 57.4636 68.0652 61.3194 66.705 63.3333L66.4343 63.7107C65.622 64.7714 64.0232 66.1408 61.9713 67.5634C59.9307 68.9782 57.4805 70.4203 54.999 71.6319C52.5144 72.845 50.0171 73.8187 47.8815 74.3099C46.8137 74.5555 45.8522 74.6765 45.0371 74.6536Z" fill="#CBCBCB" stroke="#CBCBCB"/>
</svg>
