<svg width="74" height="74" viewBox="0 0 74 74" fill="none" xmlns="http://www.w3.org/2000/svg">
<circle cx="36.7241" cy="36.7241" r="35.2241" stroke="#CBCBCB" stroke-width="3"/>
<path d="M20.3669 18.1051C21.0141 18.1052 21.4022 18.3581 21.6541 18.7526C21.9277 19.1813 22.0671 19.8246 22.0671 20.6217C22.0673 22.1111 21.5815 23.9175 20.9753 25.2281L20.8533 25.483C20.1662 26.8571 18.8405 28.2666 17.2771 29.3336C15.7103 30.4029 13.9721 31.0826 12.4861 31.0826C11.8606 31.0826 11.4848 30.8174 11.2468 30.3795C10.9877 29.9025 10.8792 29.1869 10.9412 28.3131C11.0647 26.5709 11.8434 24.4596 12.8865 23.069L12.905 23.0446L12.9207 23.0172C14.5296 20.2049 17.3544 18.1051 20.3669 18.1051Z" stroke="#CBCBCB"/>
<path d="M13.7585 50.7265C13.857 50.087 14.1659 49.7418 14.5942 49.5529C15.0596 49.3477 15.7166 49.3077 16.5044 49.4289C17.9765 49.6554 19.6879 50.4102 20.8912 51.2087L21.1245 51.3681C22.3781 52.2562 23.5695 53.7809 24.3863 55.4884C25.2049 57.1996 25.6123 59.021 25.3862 60.4897C25.2911 61.1079 24.9718 61.439 24.5028 61.6076C23.9919 61.7911 23.2682 61.7895 22.4139 61.5954C20.7108 61.2083 18.7425 60.1175 17.5267 58.875L17.5054 58.853L17.4808 58.8334C14.946 56.8153 13.3002 53.704 13.7585 50.7265Z" stroke="#CBCBCB"/>
<path d="M30.075 7.84766C31.8062 8.32486 33.1834 9.04809 33.9871 9.8291C34.3928 10.2235 34.6283 10.6085 34.7156 10.959C34.7887 11.2525 34.7646 11.5469 34.614 11.8486L34.5417 11.9785C34.0357 12.7987 33.038 13.3634 31.7566 13.7178C30.4882 14.0685 29.0269 14.1894 27.7166 14.1895C26.6362 14.1895 25.8983 13.511 25.6062 12.5811C25.3129 11.6473 25.4905 10.5041 26.2468 9.66797C27.1017 8.98029 27.9534 8.52225 28.6589 8.23633C29.3271 7.96556 29.8338 7.86288 30.075 7.84766Z" stroke="#CBCBCB"/>
<path d="M29.72 25.5304C32.317 23.4064 34.8084 23.9711 35.9094 24.0001C38.7334 24.7794 40.9862 25.612 42.3147 26.5753C42.9788 27.0569 43.3584 27.5331 43.5002 27.9991C43.6189 28.389 43.5902 28.8365 43.3196 29.3741L43.1887 29.6095C42.3359 31.0167 40.6831 31.9476 38.6448 32.5216C36.6187 33.0921 34.2953 33.2862 32.2229 33.2863C30.3856 33.2863 29.1262 32.1002 28.634 30.505C28.1411 28.9072 28.4437 26.9539 29.72 25.5304Z" stroke="#CBCBCB"/>
<path d="M47.9245 49.6309C45.646 51.1637 43.581 50.609 42.6295 50.5278C41.4789 50.1582 40.6402 49.7778 40.0501 49.3926C39.4536 49.0031 39.1378 48.6271 38.9906 48.2798C38.7431 47.6952 38.9027 46.9949 39.4931 46.0864L39.7726 45.6839C40.6131 44.5418 41.3461 43.9878 42.2518 43.7144C43.1959 43.4294 44.3774 43.4304 46.176 43.5344C47.7273 43.6242 48.7121 44.6144 49.0448 45.8553C49.379 47.102 49.047 48.5895 47.9245 49.6309Z" stroke="#CBCBCB"/>
<path d="M29.2459 40.0928C30.1149 42.5426 29.9898 44.4729 29.4327 45.5495C29.1555 46.0852 28.7893 46.383 28.4072 46.4855C28.0752 46.5744 27.6595 46.5352 27.1752 46.2703L26.9638 46.1425C25.7424 45.3388 24.7331 44.9265 23.7333 44.4375C22.7452 43.9542 21.6996 43.3661 20.3037 42.1948C19.3528 40.8139 19.4801 39.3672 20.24 38.2989C21.0137 37.2113 22.4707 36.4823 24.2237 36.6782C27.2424 37.4958 28.7335 39.3788 29.2459 40.0928Z" stroke="#CBCBCB"/>
<path d="M63.9324 31.8205C65.3907 34.8039 65.0221 36.6173 64.7189 37.2917L64.6595 37.4111C63.2259 40.0292 62.1002 42.0328 61.0467 43.1007C60.5259 43.6288 60.09 43.8568 59.7098 43.881C59.3909 43.9012 59.0126 43.7832 58.5503 43.3866L58.3469 43.1989C57.1397 42.0108 56.3181 40.1433 55.923 38.0353C55.5292 35.9343 55.5699 33.6498 56.0363 31.6804C56.2515 30.772 56.7066 30.1538 57.2798 29.765C57.8593 29.3721 58.5953 29.1897 59.4014 29.2228C61.015 29.2893 62.8217 30.2173 63.9324 31.8205Z" stroke="#CBCBCB"/>
<path d="M41.9424 11.4597C41.8494 10.8193 42.0439 10.3989 42.3981 10.0929C42.7831 9.76049 43.3996 9.53009 44.1884 9.41544C45.6624 9.20123 47.5198 9.42231 48.904 9.83375L49.1738 9.91792C50.6324 10.4003 52.2177 11.5097 53.4984 12.9035C54.7818 14.3003 55.7043 15.9227 55.918 17.3933C56.0078 18.0123 55.7994 18.4223 55.4003 18.7208C54.9654 19.0458 54.2729 19.256 53.3993 19.3203C51.6574 19.4485 49.456 18.9813 47.9299 18.149L47.9031 18.1341L47.8738 18.1226C44.8595 16.9346 42.3754 14.4409 41.9424 11.4597Z" stroke="#CBCBCB"/>
<path d="M48.2399 58.5773C48.629 58.9113 48.7257 59.2432 48.6865 59.573C48.6428 59.9412 48.4191 60.3751 48.0215 60.8386C47.3281 61.647 46.2319 62.3993 45.2501 62.8602L44.8385 63.0385C43.7339 63.4774 42.2093 63.6062 40.7016 63.4048C39.1916 63.203 37.7777 62.6811 36.8653 61.8983C36.4916 61.5776 36.4082 61.2484 36.4747 60.9032C36.5496 60.5146 36.8288 60.0538 37.3034 59.5773C38.249 58.6281 39.7863 57.8032 41.1228 57.5399L41.1542 57.5334L41.1838 57.5228C43.5881 56.7243 46.3849 56.986 48.2399 58.5773Z" stroke="#CBCBCB"/>
</svg>
