<svg width="53" height="49" viewBox="0 0 53 49" fill="none" xmlns="http://www.w3.org/2000/svg">
<path d="M47.4406 37.9878C47.4246 37.6807 47.3911 37.355 47.3365 36.9845C47.2043 36.1684 46.958 35.3749 46.6049 34.6274C48.0883 31.4578 48.8528 27.9996 48.8438 24.5001C48.8472 19.2311 47.1221 14.1064 43.9332 9.91205C40.7442 5.71765 36.2675 2.68508 31.1895 1.27941C26.1114 -0.126269 20.7125 0.172558 15.8206 2.13006C10.9288 4.08756 6.81403 7.59566 4.10748 12.1164C1.40092 16.6371 0.251958 21.9208 0.836805 27.1572C1.42165 32.3937 3.70801 37.2937 7.34525 41.1059C10.9825 44.918 15.7698 47.4319 20.973 48.2619C26.1762 49.0919 31.508 48.1922 36.1508 45.7009H51.4219C51.6498 45.7009 51.8684 45.6103 52.0296 45.4492C52.1907 45.288 52.2813 45.0694 52.2813 44.8415C52.2816 43.3389 51.8163 41.8732 50.9494 40.6458C50.0826 39.4185 48.8568 38.4899 47.4406 37.9878ZM24.7813 46.8438C20.3621 46.8438 16.0422 45.5334 12.3678 43.0782C8.69335 40.6231 5.82949 37.1334 4.13835 33.0507C2.4472 28.9679 2.00472 24.4753 2.86686 20.141C3.729 15.8068 5.85703 11.8255 8.98186 8.70066C12.1067 5.57583 16.088 3.44779 20.4222 2.58565C24.7565 1.72351 29.2491 2.16599 33.3319 3.85714C37.4146 5.54829 40.9043 8.41214 43.3594 12.0866C45.8146 15.761 47.125 20.0809 47.125 24.5001C47.1343 27.3604 46.5876 30.1953 45.5154 32.8471C45.41 32.7132 45.2911 32.593 45.1789 32.466C45.0959 32.3723 45.0172 32.2748 44.9305 32.1849C44.6977 31.943 44.4513 31.7144 44.1925 31.5005C44.166 31.4785 44.1427 31.4529 44.1159 31.4317C43.829 31.2023 43.528 30.9909 43.2148 30.799C43.1153 30.7374 43.0106 30.6856 42.9088 30.628C42.688 30.5032 42.4644 30.3846 42.2332 30.279C42.1085 30.2221 41.9818 30.1715 41.8543 30.1203C41.6322 30.0311 41.4074 29.9511 41.1776 29.8797C41.0456 29.8388 40.9142 29.7985 40.7799 29.7636C40.5328 29.6994 40.2815 29.6499 40.0279 29.6069C39.9086 29.5867 39.7915 29.5608 39.671 29.5454C39.2931 29.4952 38.9125 29.4691 38.5313 29.4673C36.4042 29.4592 34.345 30.2153 32.7285 31.5978C31.112 32.9802 30.0456 34.8972 29.7235 36.9998C29.6707 37.3598 29.6371 37.6821 29.622 37.988C28.2058 38.4902 26.98 39.4187 26.1132 40.646C25.2464 41.8733 24.7811 43.339 24.7813 44.8415C24.7813 45.0694 24.8718 45.288 25.033 45.4492C25.1941 45.6103 25.4127 45.7009 25.6407 45.7009H31.8502C29.5704 46.4583 27.1836 46.8442 24.7813 46.8438ZM35.9446 43.9821H26.5663C26.7357 42.9042 27.2186 41.9 27.9547 41.0947C28.6909 40.2893 29.6479 39.7184 30.7062 39.4532C30.8919 39.4064 31.0565 39.299 31.1742 39.148C31.2919 38.997 31.3558 38.811 31.3558 38.6196C31.3582 38.5443 31.3496 38.469 31.3301 38.3962C31.3333 38.0152 31.3641 37.6351 31.4224 37.2586C31.6837 35.5628 32.545 34.0172 33.8496 32.9028C35.1542 31.7883 36.8155 31.1792 38.5313 31.186C38.8636 31.1859 39.1955 31.2087 39.5246 31.2541C40.6593 31.4107 41.7398 31.8374 42.6753 32.4983C43.6109 33.1591 44.3742 34.0349 44.9011 35.0519C45.2677 35.738 45.5171 36.4807 45.6387 37.2491C45.6954 37.6117 45.7273 37.9777 45.7344 38.3447C45.717 38.4353 45.7077 38.5274 45.7067 38.6197C45.7068 38.8111 45.7707 38.9971 45.8883 39.1481C46.006 39.2991 46.1707 39.4065 46.3563 39.4533C47.4147 39.7185 48.3716 40.2894 49.1078 41.0947C49.844 41.9001 50.3269 42.9043 50.4963 43.9822L35.9446 43.9821Z" fill="#C4C4C4"/>
<path d="M16.1875 9.89062C14.9977 9.89063 13.8347 10.2434 12.8454 10.9044C11.8561 11.5654 11.0851 12.505 10.6298 13.6042C10.1745 14.7034 10.0554 15.9129 10.2875 17.0798C10.5196 18.2468 11.0925 19.3186 11.9338 20.1599C12.7751 21.0012 13.847 21.5742 15.0139 21.8063C16.1808 22.0384 17.3904 21.9193 18.4896 21.464C19.5888 21.0087 20.5283 20.2376 21.1893 19.2484C21.8503 18.2591 22.2031 17.096 22.2031 15.9062C22.2013 14.3114 21.5669 12.7823 20.4392 11.6546C19.3114 10.5268 17.7824 9.89247 16.1875 9.89062ZM16.1875 20.2031C15.3377 20.2031 14.5069 19.9511 13.8003 19.479C13.0937 19.0068 12.5429 18.3357 12.2177 17.5506C11.8925 16.7654 11.8074 15.9015 11.9732 15.068C12.139 14.2345 12.5482 13.4688 13.1492 12.8679C13.7501 12.267 14.5157 11.8577 15.3492 11.6919C16.1827 11.5261 17.0467 11.6112 17.8318 11.9365C18.617 12.2617 19.2881 12.8124 19.7602 13.519C20.2324 14.2257 20.4844 15.0564 20.4844 15.9062C20.483 17.0454 20.0299 18.1376 19.2244 18.9431C18.4188 19.7486 17.3267 20.2018 16.1875 20.2031ZM11.0313 24.5C10.1814 24.5 9.35065 24.752 8.64404 25.2242C7.93742 25.6963 7.38668 26.3674 7.06146 27.1525C6.73624 27.9377 6.65114 28.8016 6.81694 29.6352C6.98274 30.4687 7.39197 31.2343 7.9929 31.8352C8.59383 32.4362 9.35946 32.8454 10.193 33.0112C11.0265 33.177 11.8904 33.0919 12.6756 32.7667C13.4607 32.4414 14.1318 31.8907 14.604 31.1841C15.0761 30.4775 15.3281 29.6467 15.3281 28.7969C15.3268 27.6577 14.8736 26.5655 14.0681 25.76C13.2626 24.9545 12.1704 24.5013 11.0313 24.5ZM11.0313 31.375C10.5213 31.375 10.0229 31.2238 9.59892 30.9405C9.17495 30.6572 8.84451 30.2546 8.64938 29.7835C8.45424 29.3124 8.40319 28.794 8.50266 28.2939C8.60214 27.7938 8.84769 27.3344 9.20824 26.9739C9.5688 26.6133 10.0282 26.3678 10.5283 26.2683C11.0284 26.1688 11.5468 26.2199 12.0179 26.415C12.4889 26.6101 12.8916 26.9406 13.1749 27.3645C13.4582 27.7885 13.6094 28.287 13.6094 28.7969C13.6086 29.4804 13.3368 30.1357 12.8534 30.6191C12.3701 31.1024 11.7148 31.3742 11.0313 31.375Z" fill="#C4C4C4"/>
</svg>
