<svg width="84" height="84" viewBox="0 0 84 84" fill="none" xmlns="http://www.w3.org/2000/svg">
<path d="M42.0819 0C18.89 0 0.000488281 18.7708 0.000488281 42.0408C0.000488281 65.3082 18.89 84 42.0819 84C65.09 84 84.0005 65.3055 84.0005 42.0408C84.0005 18.7734 65.09 0 42.0819 0ZM42.0819 2.63265C63.6699 2.63265 81.3755 20.2003 81.3755 42.0408C81.3755 63.8813 63.6699 81.3673 42.0819 81.3673C20.2996 81.3673 2.62549 63.8813 2.62549 42.0408C2.62549 20.2003 20.2996 2.63265 42.0819 2.63265ZM33.1411 7.65312C32.4731 7.65242 31.8115 7.78383 31.1941 8.03983C30.5767 8.29582 30.0158 8.67138 29.5433 9.14501C29.0708 9.61864 28.696 10.181 28.4405 10.8001C28.1849 11.4191 28.0535 12.0826 28.0539 12.7526C28.0539 15.5748 30.3297 17.9363 33.1411 17.9363C35.9525 17.9363 38.2284 15.5748 38.2284 12.7526C38.2291 12.0824 38.0979 11.4186 37.8425 10.7993C37.5871 10.1799 37.2124 9.61721 36.7399 9.1433C36.2674 8.66939 35.7063 8.2936 35.0887 8.03745C34.4712 7.78129 33.8094 7.65242 33.1411 7.65312ZM57.9159 7.65312C57.7647 7.70868 57.625 7.79168 57.5037 7.89795C57.3465 7.97888 57.2073 8.09081 57.0942 8.22703C56.9945 8.30601 56.8527 8.30602 56.7661 8.39289C56.5343 8.6167 56.3496 8.88485 56.2229 9.18148C56.0962 9.47812 56.0301 9.79721 56.0285 10.1199C56.0285 11.0835 56.5115 11.9628 57.257 12.4235C57.3071 12.4836 57.3624 12.5391 57.4224 12.5893C57.4434 12.5972 57.4854 12.5788 57.5037 12.5893C57.7525 12.7323 58.0411 12.7896 58.3254 12.7526H58.4881C58.58 12.7526 58.6456 12.6788 58.7349 12.6709C59.0496 12.6516 59.357 12.5673 59.6379 12.4235C59.9168 12.2781 60.1668 12.0827 60.3755 11.8469C60.4962 11.7206 60.6117 11.5837 60.7036 11.4362C60.7561 11.3494 60.827 11.2809 60.869 11.1888C61.0271 10.8546 61.1105 10.4898 61.1131 10.1199C61.1086 9.83767 61.0534 9.55855 60.9504 9.29589C60.8297 9.04664 60.6621 8.82315 60.4569 8.63773C60.2693 8.43546 60.0471 8.26869 59.8006 8.14542C59.5495 7.98919 59.2733 7.87785 58.9842 7.81634C58.9501 7.80318 58.9317 7.75842 58.9002 7.73473C58.8514 7.6978 58.7962 7.67014 58.7375 7.65312V7.7321C58.6482 7.72683 58.58 7.65312 58.4907 7.65312H58.328C58.1915 7.63135 58.0524 7.63135 57.9159 7.65312ZM33.1411 10.2858C34.5219 10.2858 35.6034 11.3678 35.6034 12.7526C35.6034 14.1373 34.5219 15.3036 33.1411 15.3036C31.7604 15.3036 30.6789 14.1373 30.6789 12.7526C30.6789 11.3678 31.7604 10.2858 33.1411 10.2858ZM14.1099 21.5535C12.695 21.5535 11.4035 22.8461 11.4035 24.2704C11.4035 25.7236 12.6871 26.6556 14.1099 26.6556C15.5326 26.6556 16.7349 25.7236 16.7349 24.2704C16.7349 22.8488 15.5221 21.5535 14.1099 21.5535ZM67.4315 22.9541C66.6702 22.9541 66.119 23.5017 66.119 24.2704C66.119 24.8391 66.6676 25.4235 67.4315 25.4235C68.1927 25.4235 68.744 24.8391 68.744 24.2704C68.744 23.5017 68.1927 22.9541 67.4315 22.9541ZM59.8006 25.4235C57.7164 25.4235 56.0285 27.1163 56.0285 29.2066C56.0285 31.3917 57.7164 33.1556 59.8006 33.1556C61.8849 33.1556 63.5754 31.3917 63.5754 29.2066C63.5754 27.1163 61.8849 25.4235 59.8006 25.4235ZM29.369 27.8903C27.2847 27.8903 25.5102 29.6542 25.5102 31.8393C25.5102 33.9296 27.2847 35.7066 29.369 35.7066C31.4506 35.7066 33.1411 33.9296 33.1411 31.8393C33.1411 29.6542 31.4532 27.8903 29.369 27.8903ZM59.8006 28.0562C60.386 28.0562 60.9504 28.6195 60.9504 29.2066C60.9504 30.0754 60.386 30.523 59.8006 30.523C59.2179 30.523 58.6535 30.0754 58.6535 29.2066C58.6535 28.6195 59.2179 28.0562 59.8006 28.0562ZM29.369 30.523C29.9517 30.523 30.5161 30.9705 30.5161 31.8393C30.5161 32.4264 29.9517 33.074 29.3664 33.074C28.7836 33.074 28.1379 32.4264 28.1379 31.8393C28.1379 30.9705 28.7836 30.523 29.369 30.523ZM8.94124 33.074C6.85699 33.074 5.16911 34.7668 5.16911 36.8571C5.16911 39.0448 6.85699 40.8061 8.94124 40.8061C11.1226 40.8061 12.8787 39.0448 12.8787 36.8571C12.8787 34.7668 11.1226 33.074 8.94124 33.074ZM42.0819 35.5408C40.3655 35.5484 38.7217 36.2358 37.5083 37.4532C36.295 38.6706 35.6103 40.3195 35.6034 42.0408C35.6034 45.6107 38.525 48.4592 42.0819 48.4592C45.4996 48.4592 48.4002 45.6107 48.4002 42.0408C48.4002 38.4709 45.4996 35.5408 42.0819 35.5408ZM75.0597 35.5408C73.6422 35.5408 72.4347 36.7518 72.4347 38.1734C72.4347 39.5951 73.6449 40.8061 75.0597 40.8061C76.4746 40.8061 77.6847 39.5951 77.6847 38.1734C77.6847 36.7518 76.472 35.5408 75.0597 35.5408ZM8.94124 35.7066C9.81011 35.7066 10.2537 36.2727 10.2537 36.8571C10.2537 37.7312 9.81011 38.1734 8.94124 38.1734C8.35849 38.1734 7.79411 37.7285 7.79411 36.8571C7.79411 36.2727 8.35849 35.7066 8.94124 35.7066ZM42.0819 38.1734C43.9981 38.1734 45.7752 39.8768 45.7752 42.0408C45.7752 44.2048 44.0007 45.8266 42.0819 45.8266C39.9241 45.8266 38.2284 44.2048 38.2284 42.0408C38.2284 39.8768 39.9241 38.1734 42.0819 38.1734ZM68.744 40.7245C68.0757 40.7238 67.4139 40.8553 66.7964 41.1114C66.1788 41.3676 65.6178 41.7434 65.1452 42.2173C64.6727 42.6912 64.298 43.2539 64.0426 43.8733C63.7872 44.4926 63.656 45.1563 63.6567 45.8266C63.6567 48.6435 65.93 51.0076 68.744 51.0076C70.1094 50.9926 71.4147 50.4419 72.3803 49.4735C73.3459 48.5051 73.895 47.196 73.91 45.8266C73.91 43.0044 71.5554 40.7245 68.744 40.7245ZM68.744 43.3571C70.1221 43.3571 71.285 44.4391 71.285 45.8266C71.2768 46.4999 71.0065 47.1433 70.5317 47.6195C70.0569 48.0956 69.4154 48.3668 68.744 48.375C67.3632 48.375 66.2817 47.2087 66.2817 45.8266C66.2817 44.4391 67.3632 43.3571 68.744 43.3571ZM14.1099 55.9438C12.0256 55.9438 10.2537 57.7209 10.2537 59.8112C10.2537 61.9989 12.0256 63.7602 14.1099 63.7602C16.1941 63.7602 17.8846 61.9989 17.8846 59.8112C17.8846 57.7209 16.1941 55.9438 14.1099 55.9438ZM62.2629 58.4949C60.1786 58.4949 58.4881 60.2588 58.4881 62.4439C58.4881 64.5342 60.1786 66.2296 62.2629 66.2296C64.4416 66.2296 66.2817 64.5342 66.2817 62.4439C66.2817 60.2588 64.4442 58.4949 62.2629 58.4949ZM14.1099 58.5765C14.6926 58.5765 15.2596 59.2267 15.2596 59.8112C15.2596 60.6826 14.6926 61.1275 14.1099 61.1275C13.9416 61.1264 13.7752 61.0909 13.621 61.0233C13.4668 60.9557 13.3279 60.8573 13.2128 60.7342C13.0976 60.6111 13.0086 60.4658 12.9512 60.3071C12.8938 60.1485 12.8691 59.9797 12.8787 59.8112C12.8787 59.2267 13.5271 58.5765 14.1099 58.5765ZM73.7472 59.8112C73.175 59.8112 72.5975 60.3614 72.5975 61.1275C72.5975 61.8963 73.175 62.5255 73.7472 62.5255C74.5085 62.5255 75.0597 61.8936 75.0597 61.1275C75.0597 60.3588 74.5085 59.8112 73.7472 59.8112ZM62.2629 61.1275C63.1291 61.1275 63.6567 61.5724 63.6567 62.4439C63.6567 63.0283 63.1317 63.597 62.2629 63.597C61.9634 63.58 61.6807 63.453 61.4687 63.2404C61.2566 63.0277 61.13 62.7441 61.1131 62.4439C61.1131 61.5724 61.6775 61.1275 62.2629 61.1275ZM40.7694 63.597C39.4035 63.6113 38.0975 64.1617 37.1314 65.1302C36.1652 66.0986 35.6158 67.4081 35.6007 68.778C35.6007 71.6002 37.958 73.8801 40.772 73.8801C41.44 73.8804 42.1016 73.7487 42.7188 73.4924C43.336 73.2361 43.8968 72.8602 44.3691 72.3863C44.8413 71.9125 45.2158 71.3499 45.471 70.7307C45.7263 70.1115 45.8573 69.448 45.8566 68.778C45.8566 65.9584 43.5834 63.597 40.7694 63.597ZM40.7694 66.2296C42.1501 66.2296 43.2316 67.3932 43.2316 68.778C43.2355 69.1034 43.1744 69.4262 43.0521 69.7276C42.9297 70.029 42.7485 70.3027 42.5191 70.5328C42.2896 70.7629 42.0167 70.9446 41.7162 71.0674C41.4157 71.1901 41.0938 71.2513 40.7694 71.2474C39.3886 71.2474 38.2257 70.1628 38.2257 68.778C38.2339 68.1038 38.505 67.4595 38.9809 66.9833C39.4568 66.507 40.0971 66.2364 40.7694 66.2296ZM48.3976 75.1148C47.6364 75.1148 47.0851 75.6624 47.0851 76.4311C47.0851 77.1999 47.6364 77.7475 48.3976 77.7475C49.1589 77.7475 49.7101 77.1972 49.7101 76.4311C49.7101 75.6624 49.1615 75.1148 48.3976 75.1148Z" fill="#C4C4C4"/>
</svg>
