<svg width="64" height="37" viewBox="0 0 64 37" fill="none" xmlns="http://www.w3.org/2000/svg">
<path d="M5.3071 27.6679H7.93667L1.75554 35.406C1.63945 35.5515 1.56734 35.7261 1.54744 35.91C1.52753 36.0938 1.56064 36.2794 1.64298 36.4456C1.72532 36.6119 1.85357 36.752 2.01309 36.85C2.17261 36.948 2.35696 37 2.54511 37H58.6939C60.0626 37.0025 61.3792 36.4843 62.3676 35.5539C63.3559 34.6236 63.9394 33.3535 63.9955 32.0098C64.0517 30.6661 63.5763 29.3532 62.6689 28.3464C61.7615 27.3396 60.4926 26.717 59.1283 26.6092C58.9497 25.3749 58.4306 24.2123 57.6272 23.2475C56.8237 22.2826 55.7667 21.5523 54.5708 21.1359C53.3749 20.7194 52.0858 20.6327 50.8433 20.8851C49.6008 21.1375 48.4523 21.7193 47.5225 22.5676L30.5132 0.372367C30.4157 0.255931 30.2931 0.162153 30.1544 0.097771C30.0156 0.0333891 29.864 0 29.7106 0C29.5571 0 29.4055 0.0333891 29.2668 0.097771C29.128 0.162153 29.0055 0.255931 28.9079 0.372367L24.2508 6.44855C24.2357 6.46728 24.2177 6.48108 24.2026 6.50079L21.7045 9.77053L17.8028 14.86C17.0859 13.6201 15.9922 12.6317 14.6749 12.0333C13.3577 11.4349 11.8828 11.2564 10.4571 11.5229C9.03141 11.7894 7.7263 12.4875 6.72468 13.5194C5.72305 14.5512 5.07512 15.8652 4.87169 17.277C3.50729 17.3849 2.23835 18.0075 1.33096 19.0144C0.42356 20.0214 -0.051822 21.3344 0.00448757 22.6782C0.0607972 24.0219 0.644425 25.2921 1.633 26.2223C2.62157 27.1526 3.9383 27.6706 5.3071 27.6679ZM52.2399 22.7135C53.5529 22.7148 54.8117 23.2278 55.7401 24.14C56.6685 25.0522 57.1907 26.2891 57.192 27.5791C57.192 27.8406 57.2977 28.0913 57.4859 28.2762C57.674 28.461 57.9292 28.5649 58.1953 28.5649H58.6969C59.5694 28.5649 60.4062 28.9054 61.0231 29.5116C61.64 30.1178 61.9866 30.9399 61.9866 31.7972C61.9866 32.6544 61.64 33.4766 61.0231 34.0828C60.4062 34.6889 59.5694 35.0295 58.6969 35.0295H45.7869C44.9144 35.0295 44.0777 34.6889 43.4607 34.0828C42.8438 33.4766 42.4972 32.6544 42.4972 31.7972C42.4972 30.9399 42.8438 30.1178 43.4607 29.5116C44.0777 28.9054 44.9144 28.5649 45.7869 28.5649H46.2885C46.5546 28.5649 46.8098 28.461 46.9979 28.2762C47.1861 28.0913 47.2918 27.8406 47.2918 27.5791C47.2929 26.2897 47.8144 25.0533 48.742 24.1411C49.6696 23.229 50.9275 22.7156 52.2399 22.7135ZM29.7116 2.60411L37.0354 12.1531C36.7896 13.1241 35.9489 15.5471 33.7086 15.5471C31.9087 15.5471 30.9998 14.2656 30.1971 13.127C29.5711 12.2398 28.9802 11.4089 27.9679 11.4089H22.9626L29.7116 2.60411ZM21.4517 13.3804H27.8545C28.1092 13.651 28.3395 13.9429 28.5428 14.2528C29.4628 15.553 30.8503 17.5166 33.7005 17.5186C34.7591 17.4757 35.7802 17.1221 36.6322 16.5035C37.4841 15.8848 38.1278 15.0294 38.4801 14.0477L46.2323 24.1517C45.7819 24.9076 45.4849 25.7422 45.3575 26.6092C44.0332 26.7183 42.7988 27.3118 41.8985 28.2724C40.9982 29.2329 40.4976 30.4904 40.4957 31.7962C40.5006 32.9744 40.9167 34.1153 41.6745 35.0285H4.60783L10.488 27.6679H18.2131C19.5819 27.6706 20.8987 27.1526 21.8872 26.2223C22.8758 25.2921 23.4594 24.0219 23.5157 22.6782C23.5721 21.3344 23.0967 20.0214 22.1893 19.0144C21.2819 18.0075 20.0129 17.3849 18.6485 17.277C18.6385 17.212 18.6225 17.1499 18.6114 17.0858L21.4517 13.3804ZM5.3071 19.2308H5.80874C6.07482 19.2308 6.33001 19.127 6.51815 18.9421C6.7063 18.7572 6.812 18.5065 6.812 18.2451C6.812 16.9549 7.33364 15.7175 8.26215 14.8052C9.19067 13.8929 10.45 13.3804 11.7631 13.3804C13.0762 13.3804 14.3356 13.8929 15.2641 14.8052C16.1926 15.7175 16.7142 16.9549 16.7142 18.2451C16.7142 18.5065 16.8199 18.7572 17.0081 18.9421C17.1962 19.127 17.4514 19.2308 17.7175 19.2308H18.2191C19.0818 19.2456 19.9041 19.5927 20.5088 20.1974C21.1135 20.802 21.4524 21.6158 21.4524 22.4636C21.4524 23.3113 21.1135 24.1252 20.5088 24.7298C19.9041 25.3345 19.0818 25.6816 18.2191 25.6964H5.3071C4.44444 25.6816 3.62219 25.3345 3.01745 24.7298C2.41271 24.1252 2.07385 23.3113 2.07385 22.4636C2.07385 21.6158 2.41271 20.802 3.01745 20.1974C3.62219 19.5927 4.44444 19.2456 5.3071 19.2308Z" fill="#C4C4C4"/>
</svg>
