<svg width="47" height="48" viewBox="0 0 47 48" fill="none" xmlns="http://www.w3.org/2000/svg">
<path d="M23.4919 0.00958865C17.4581 -0.165198 11.6004 2.05552 7.19898 6.18644C2.79752 10.3174 0.210171 16.0226 0.00236011 22.0553C-0.0076885 22.2131 0.0144209 22.3712 0.0673462 22.5201C0.120272 22.669 0.202909 22.8056 0.310239 22.9215C0.417569 23.0375 0.547354 23.1305 0.691711 23.1948C0.836068 23.2591 0.991987 23.2933 1.15 23.2955C1.31198 23.3055 1.47432 23.2831 1.62755 23.2297C1.78079 23.1762 1.92183 23.0928 2.04246 22.9842C2.16309 22.8757 2.26087 22.7442 2.33011 22.5974C2.39935 22.4506 2.43865 22.2915 2.44572 22.1294C2.63893 16.73 4.96061 11.6263 8.90382 7.93284C12.847 4.23933 18.0914 2.25601 23.4919 2.41593C29.0983 2.41593 34.475 4.64304 38.4393 8.60732C42.4036 12.5716 44.6307 17.9483 44.6307 23.5547C44.6307 29.161 42.4036 34.5378 38.4393 38.502C34.475 42.4663 29.0983 44.6934 23.4919 44.6934C19.4377 44.7976 15.4447 43.6886 12.0248 41.5087C8.60495 39.3288 5.91395 36.1773 4.29675 32.4581C4.23848 32.3063 4.15005 32.1679 4.03679 32.0512C3.92353 31.9345 3.78779 31.842 3.63777 31.7793C3.48776 31.7165 3.32658 31.6848 3.16397 31.6861C3.00136 31.6874 2.8407 31.7216 2.69169 31.7867C2.54269 31.8518 2.40843 31.9465 2.29702 32.0649C2.18561 32.1834 2.09937 32.3232 2.04351 32.4759C1.98765 32.6286 1.96333 32.7911 1.97201 32.9535C1.98069 33.1158 2.0222 33.2748 2.09402 33.4207C3.8981 37.561 6.89183 41.0718 10.6951 43.5073C14.4984 45.9428 18.9396 47.1933 23.4549 47.0998C29.6994 47.0998 35.6882 44.6191 40.1038 40.2036C44.5194 35.788 47 29.7992 47 23.5547C47 17.3101 44.5194 11.3213 40.1038 6.90579C35.6882 2.49022 29.6994 0.00958865 23.4549 0.00958865H23.4919Z" fill="#C4C4C4"/>
<path d="M2.94533 28.59L2.57512 26.3317C2.55934 26.1677 2.51004 26.0087 2.43029 25.8645C2.35053 25.7204 2.24202 25.5941 2.11147 25.4936C1.98093 25.3931 1.83113 25.3205 1.67137 25.2802C1.5116 25.24 1.34528 25.233 1.18269 25.2597C1.02011 25.2863 0.864743 25.3461 0.726213 25.4353C0.587682 25.5245 0.468944 25.6412 0.377356 25.7781C0.285768 25.9151 0.223283 26.0694 0.193774 26.2315C0.164264 26.3935 0.168358 26.56 0.205803 26.7204L0.594519 28.9787C0.638564 29.2616 0.782043 29.5195 0.99918 29.7061C1.21632 29.8927 1.49288 29.9957 1.77918 29.9967H1.96428C2.12164 29.97 2.2721 29.9122 2.40691 29.8267C2.54171 29.7412 2.65815 29.6298 2.74945 29.4988C2.84076 29.3679 2.9051 29.2201 2.93873 29.0641C2.97236 28.908 2.9746 28.7469 2.94533 28.59ZM24.1766 32.7733C22.4162 32.8101 20.6846 32.323 19.2016 31.3738C17.7185 30.4247 16.5509 29.0563 15.847 27.4423C15.7102 27.1645 15.4717 26.9502 15.1809 26.8438C14.8901 26.7374 14.5695 26.7473 14.2858 26.8713C14.0021 26.9952 13.7771 27.2238 13.6576 27.5094C13.5381 27.7951 13.5333 28.1158 13.6443 28.4048C14.5272 30.4534 16.0009 32.1921 17.877 33.3988C19.7531 34.6056 21.9464 35.2256 24.1766 35.1796C25.741 35.2421 27.3018 34.9879 28.7655 34.4323C30.2292 33.8768 31.5656 33.0312 32.6945 31.9465C33.8234 30.8618 34.7216 29.5602 35.3351 28.1198C35.9486 26.6795 36.2649 25.13 36.2649 23.5644C36.2649 21.9988 35.9486 20.4494 35.3351 19.009C34.7216 17.5686 33.8234 16.267 32.6945 15.1823C31.5656 14.0976 30.2292 13.2521 28.7655 12.6965C27.3018 12.1409 25.741 11.8867 24.1766 11.9492C21.6601 11.9385 19.2099 12.7553 17.2031 14.2737C15.1963 15.7922 13.7442 17.9282 13.0705 20.3529L12.3115 18.9276C12.1593 18.6453 11.9013 18.435 11.594 18.343C11.2868 18.2511 10.9557 18.2849 10.6734 18.4371C10.3911 18.5892 10.1808 18.8473 10.0888 19.1545C9.99685 19.4618 10.0307 19.7929 10.1829 20.0752L12.33 24.0549C12.406 24.1993 12.511 24.3265 12.6384 24.4284C12.7658 24.5303 12.9129 24.6048 13.0705 24.6473H13.3851C13.6089 24.6515 13.8286 24.5869 14.0145 24.4622L17.9757 22.0188C18.2117 21.8371 18.372 21.5744 18.4255 21.2814C18.479 20.9884 18.4219 20.686 18.2653 20.4326C18.1087 20.1793 17.8637 19.993 17.5777 19.9099C17.2917 19.8268 16.985 19.8527 16.717 19.9827L15.4583 20.7601C16.0039 18.8609 17.1658 17.1971 18.7609 16.0309C20.3561 14.8647 22.294 14.2622 24.2692 14.3185C26.7238 14.3185 29.0779 15.2936 30.8136 17.0293C32.5492 18.765 33.5243 21.119 33.5243 23.5737C33.5243 26.0283 32.5492 28.3824 30.8136 30.118C29.0779 31.8537 26.7238 32.8288 24.2692 32.8288L24.1766 32.7733Z" fill="#C4C4C4"/>
</svg>
