<svg width="165" height="165" viewBox="0 0 165 165" fill="none" xmlns="http://www.w3.org/2000/svg">
<g clip-path="url(#clip0_258_526)">
<path d="M68.0625 134.062L119.625 82.5L68.0625 30.9375L53.625 45.375L90.75 82.5L53.625 119.625L68.0625 134.062Z" fill="#C4C4C4"/>
<path d="M82.5 10.3125C122.719 10.3125 154.688 42.2812 154.688 82.5C154.688 122.719 122.719 154.688 82.5 154.688C42.2812 154.688 10.3125 122.719 10.3125 82.5C10.3125 42.2812 42.2812 10.3125 82.5 10.3125ZM82.5 0C37.125 0 0 37.125 0 82.5C0 127.875 37.125 165 82.5 165C127.875 165 165 127.875 165 82.5C165 37.125 127.875 0 82.5 0Z" fill="#C4C4C4"/>
</g>
<defs>
<clipPath id="clip0_258_526">
<rect width="165" height="165" fill="white"/>
</clipPath>
</defs>
</svg>
