<svg width="165" height="165" viewBox="0 0 165 165" fill="none" xmlns="http://www.w3.org/2000/svg">
<g clip-path="url(#clip0_258_529)">
<path d="M96.9375 30.9375L45.375 82.5L96.9375 134.062L111.375 119.625L74.25 82.5L111.375 45.375L96.9375 30.9375Z" fill="#C4C4C4"/>
<path d="M82.5 154.687C42.2812 154.687 10.3125 122.719 10.3125 82.5C10.3125 42.2812 42.2813 10.3125 82.5 10.3125C122.719 10.3125 154.688 42.2812 154.688 82.5C154.688 122.719 122.719 154.687 82.5 154.687ZM82.5 165C127.875 165 165 127.875 165 82.5C165 37.125 127.875 -3.24557e-06 82.5 -7.21238e-06C37.125 -1.11792e-05 1.11792e-05 37.125 7.21238e-06 82.5C3.24557e-06 127.875 37.125 165 82.5 165Z" fill="#C4C4C4"/>
</g>
<defs>
<clipPath id="clip0_258_529">
<rect width="165" height="165" fill="white" transform="translate(165 165) rotate(-180)"/>
</clipPath>
</defs>
</svg>
