<svg width="50" height="50" viewBox="0 0 50 50" fill="none" xmlns="http://www.w3.org/2000/svg">
<g clip-path="url(#clip0_87_707)">
<path d="M48.6034 1.93339C48.4959 1.68925 48.3006 1.49394 48.0662 1.39628C47.9393 1.33769 35.4393 -3.91622 25.1561 6.35722C23.1932 8.32011 21.2987 10.6346 19.5604 13.076L17.1873 12.5291C13.6034 11.699 9.91195 12.7537 7.30453 15.3514L0.829916 21.8357C-0.888834 23.5545 0.214682 26.4744 2.60726 26.66L11.7284 27.3924C11.328 28.4568 10.9862 29.5018 10.7909 30.1951C10.6151 30.8103 10.6444 31.4451 10.8299 32.031C9.17953 32.4803 7.67562 33.3006 6.82601 34.1502C4.95101 36.0154 3.28109 44.1893 2.96859 45.8103C2.83187 46.5916 3.52523 47.1873 4.18929 47.0311C5.81038 46.7088 13.9842 45.0389 15.8494 43.1736C16.7381 42.285 17.5389 40.7615 17.9784 39.1697C18.6034 39.365 19.2381 39.365 19.8143 39.199H19.8241C20.5174 39.0037 21.533 38.6814 22.617 38.2615L23.3494 47.3826C23.535 49.7752 26.4647 50.8689 28.1737 49.16L34.658 42.6756C37.2557 40.0779 38.3201 36.3768 37.4803 32.7928L36.9334 30.4197C39.3748 28.6814 41.6893 26.7869 43.6522 24.824C53.9256 14.5603 48.6619 2.06034 48.6034 1.93339ZM2.31429 23.3103L8.7889 16.826C10.8885 14.7264 13.8573 13.8865 16.7186 14.5603L18.2909 14.9217C15.9569 18.4275 13.9842 22.0994 12.5584 25.3611L2.77328 24.5799C2.13851 24.5213 1.86507 23.7498 2.31429 23.3103ZM14.3748 41.7088C13.4666 42.617 8.96468 43.8768 5.33187 44.6775C6.12288 41.035 7.38265 36.5428 8.30062 35.6346C9.09163 34.8338 10.6346 34.1404 12.1385 33.867L16.1424 37.8709C16.1327 37.91 16.1327 37.949 16.1229 37.9978C15.8299 39.4334 15.117 40.9666 14.3748 41.7088ZM18.1248 36.8943L13.1053 31.8748C12.8123 31.5818 12.6952 31.1424 12.8026 30.7518C12.8905 30.449 13.0565 29.8826 13.2713 29.2478L20.7518 36.7283C20.3026 36.8846 19.7069 37.0701 19.2479 37.1971C18.8573 37.3143 18.4276 37.1971 18.1248 36.8943ZM35.4393 33.281C36.1034 36.1619 35.2635 39.1209 33.1737 41.2107L26.6893 47.6951C26.2401 48.1443 25.4784 47.8611 25.4198 47.2361L24.6385 37.451C27.9002 36.035 31.5721 34.0525 35.078 31.7185L35.4393 33.281ZM22.8905 35.9178L14.0721 27.0994C16.5623 21.0154 21.3182 13.1346 26.6209 7.83183C32.6756 1.77714 40.6346 0.868935 46.8358 3.15409C47.5682 5.20487 50.4784 15.0584 42.158 23.3787C36.8553 28.6814 28.9744 33.4373 22.8905 35.9178Z" fill="#C4C4C4"/>
<path d="M30.5273 9.31641C27.7246 12.1191 27.7246 16.6602 30.5273 19.4727C33.3301 22.2754 37.8711 22.2754 40.6836 19.4727C43.4863 16.6699 43.4863 12.1191 40.6836 9.31641C37.8711 6.51367 33.3301 6.51367 30.5273 9.31641ZM39.209 17.998C37.2168 19.9902 33.9941 19.9902 32.002 17.998C30.0098 16.0059 30.0098 12.7832 32.002 10.791C33.9941 8.79883 37.2168 8.79883 39.209 10.791C41.1914 12.7832 41.1914 16.0156 39.209 17.998Z" fill="#C4C4C4"/>
</g>
<defs>
<clipPath id="clip0_87_707">
<rect width="50" height="50" fill="white"/>
</clipPath>
</defs>
</svg>
