<svg width="73" height="84" viewBox="0 0 73 84" fill="none" xmlns="http://www.w3.org/2000/svg">
<path d="M70.1389 14.2083L52.5681 1.85391C51.8974 1.38238 50.9595 1.52722 50.4731 2.17742L1.88061 67.141C1.39425 67.7912 1.54365 68.7005 2.21428 69.1721L19.7851 81.5264C20.4558 81.9979 21.3937 81.8531 21.88 81.2029L70.4726 16.2394C70.9589 15.5892 70.8095 14.6798 70.1389 14.2083Z" stroke="#C4C4C4" stroke-width="3" stroke-linecap="round" stroke-linejoin="round"/>
<path d="M44.3157 10.4103L50.1957 14.555" stroke="#C4C4C4" stroke-width="3" stroke-linecap="round" stroke-linejoin="round"/>
<path d="M37.0706 20.1105L45.3056 25.8987" stroke="#C4C4C4" stroke-width="3" stroke-linecap="round" stroke-linejoin="round"/>
<path d="M29.8108 29.8107L35.6908 33.941" stroke="#C4C4C4" stroke-width="3" stroke-linecap="round" stroke-linejoin="round"/>
<path d="M22.5505 39.511L30.8005 45.2991" stroke="#C4C4C4" stroke-width="3" stroke-linecap="round" stroke-linejoin="round"/>
<path d="M15.3059 49.2112L21.1859 53.3414" stroke="#C4C4C4" stroke-width="3" stroke-linecap="round" stroke-linejoin="round"/>
<path d="M8.04565 58.9114L16.2807 64.6995" stroke="#C4C4C4" stroke-width="3" stroke-linecap="round" stroke-linejoin="round"/>
</svg>
