<svg width="75" height="75" viewBox="0 0 75 75" fill="none" xmlns="http://www.w3.org/2000/svg">
<g clip-path="url(#clip0_222_332)">
<path d="M37.5001 12.5001C32.5555 12.5001 27.722 13.9663 23.6108 16.7133C19.4996 19.4604 16.2953 23.3648 14.4031 27.933C12.5109 32.5011 12.0158 37.5278 12.9804 42.3773C13.9451 47.2268 16.3261 51.6814 19.8224 55.1777C23.3187 58.674 27.7733 61.0551 32.6228 62.0197C37.4723 62.9843 42.499 62.4892 47.0671 60.597C51.6353 58.7049 55.5398 55.5005 58.2868 51.3893C61.0338 47.2781 62.5001 42.4446 62.5001 37.5001C62.5001 30.8696 59.8661 24.5108 55.1777 19.8224C50.4893 15.134 44.1305 12.5001 37.5001 12.5001ZM37.5001 59.3751C33.1736 59.3751 28.9443 58.0921 25.347 55.6885C21.7496 53.2848 18.9459 49.8684 17.2902 45.8713C15.6345 41.8741 15.2013 37.4758 16.0454 33.2325C16.8894 28.9891 18.9728 25.0914 22.0321 22.0321C25.0914 18.9728 28.9891 16.8894 33.2325 16.0454C37.4758 15.2013 41.8741 15.6345 45.8713 17.2902C49.8684 18.9459 53.2848 21.7496 55.6885 25.347C58.0921 28.9443 59.3751 33.1736 59.3751 37.5001C59.3751 43.3017 57.0704 48.8657 52.968 52.968C48.8657 57.0704 43.3017 59.3751 37.5001 59.3751ZM73.6876 34.2188L69.4688 29.7501C69.2628 29.5398 69.1165 29.2783 69.0451 28.9927C68.9737 28.7071 68.9797 28.4076 69.0626 28.1251L70.4688 22.1563C70.7249 20.9822 70.5295 19.7547 69.9215 18.7181C69.3135 17.6815 68.3374 16.912 67.1876 16.5626L61.3126 14.8126C61.0457 14.7345 60.8027 14.5906 60.6061 14.394C60.4095 14.1974 60.2656 13.9544 60.1876 13.6876L58.4376 7.81256C58.0877 6.64288 57.3036 5.65135 56.2461 5.04125C55.1886 4.43115 53.9378 4.2487 52.7501 4.53131L46.8751 5.93756C46.6061 6.00034 46.3258 5.99613 46.0588 5.92529C45.7918 5.85446 45.5463 5.71917 45.3438 5.53131L40.7813 1.31256C39.8904 0.482219 38.7179 0.0205078 37.5001 0.0205078C36.2822 0.0205078 35.1097 0.482219 34.2188 1.31256L29.7501 5.53131C29.538 5.73461 29.2765 5.87904 28.9915 5.95029C28.7065 6.02154 28.4078 6.01715 28.1251 5.93756L22.2501 4.50006C21.0582 4.2188 19.8038 4.40558 18.7456 5.0219C17.6874 5.63823 16.906 6.6371 16.5626 7.81256L14.8126 13.6876C14.7345 13.9544 14.5906 14.1974 14.394 14.394C14.1974 14.5906 13.9544 14.7345 13.6876 14.8126L7.81256 16.5626C6.64135 16.9126 5.64723 17.6952 5.03202 18.7515C4.41681 19.8078 4.22662 21.0586 4.50006 22.2501L5.93756 28.1251C6.00316 28.3939 6.00035 28.6749 5.92939 28.9424C5.85842 29.2099 5.72156 29.4553 5.53131 29.6563L1.31256 34.2188C0.482219 35.1097 0.0205078 36.2822 0.0205078 37.5001C0.0205078 38.7179 0.482219 39.8904 1.31256 40.7813L5.53131 45.2501C5.73734 45.4604 5.88359 45.7218 5.955 46.0074C6.0264 46.293 6.02038 46.5925 5.93756 46.8751L4.53131 52.8438C4.27518 54.0179 4.47058 55.2454 5.07862 56.282C5.68666 57.3186 6.66274 58.0882 7.81256 58.4376L13.6876 60.1876C13.9544 60.2656 14.1974 60.4095 14.394 60.6061C14.5906 60.8027 14.7345 61.0457 14.8126 61.3126L16.5626 67.1876C16.9124 68.3572 17.6965 69.3488 18.754 69.9589C19.8115 70.569 21.0623 70.7514 22.2501 70.4688L28.1251 69.0626C28.3939 68.997 28.6749 68.9998 28.9424 69.0707C29.2099 69.1417 29.4553 69.2786 29.6563 69.4688L34.1251 73.6876C35.0159 74.5179 36.1885 74.9796 37.4063 74.9796C38.6241 74.9796 39.7967 74.5179 40.6876 73.6876L45.1563 69.4688C45.3753 69.2458 45.6529 69.0894 45.957 69.0175C46.2612 68.9456 46.5794 68.9612 46.8751 69.0626L52.8438 70.4688C54.0174 70.7175 55.2416 70.5189 56.2764 69.9119C57.3111 69.3049 58.0819 68.3333 58.4376 67.1876L60.1876 61.3126C60.2656 61.0457 60.4095 60.8027 60.6061 60.6061C60.8027 60.4095 61.0457 60.2656 61.3126 60.1876L67.1876 58.4376C68.353 58.0812 69.3398 57.2959 69.9488 56.2403C70.5578 55.1847 70.7437 53.9374 70.4688 52.7501L69.0626 46.8751C68.997 46.6062 68.9998 46.3252 69.0707 46.0577C69.1417 45.7902 69.2786 45.5448 69.4688 45.3438L73.6876 40.8751C74.5452 39.9793 75.0239 38.7871 75.0239 37.5469C75.0239 36.3068 74.5452 35.1146 73.6876 34.2188ZM71.4063 38.6563L67.1876 43.1251C66.6381 43.7023 66.2416 44.4078 66.0342 45.1774C65.8268 45.9469 65.8151 46.7561 66.0001 47.5313L67.4063 53.5001C67.504 53.918 67.4389 54.3574 67.2241 54.7289C67.0093 55.1005 66.661 55.3762 66.2501 55.5001L60.3751 57.2501C59.6412 57.4811 58.9739 57.8858 58.4298 58.4298C57.8858 58.9739 57.4811 59.6412 57.2501 60.3751L55.5001 66.2501C55.3764 66.6544 55.1055 66.9976 54.7409 67.2117C54.3763 67.4258 53.9447 67.4953 53.5313 67.4063L47.5626 66.0001C46.7873 65.8151 45.9782 65.8268 45.2086 66.0342C44.4391 66.2416 43.7336 66.6381 43.1563 67.1876L38.6876 71.4063C38.3763 71.6918 37.9693 71.8502 37.5469 71.8502C37.1246 71.8502 36.7176 71.6918 36.4063 71.4063L31.9376 67.1876C31.3603 66.6381 30.6548 66.2416 29.8853 66.0342C29.1157 65.8268 28.3065 65.8151 27.5313 66.0001L21.5626 67.4063C21.1443 67.512 20.7012 67.4504 20.3277 67.2344C19.9542 67.0185 19.6797 66.6653 19.5626 66.2501L17.8126 60.3751C17.5815 59.6412 17.1768 58.9739 16.6328 58.4298C16.0887 57.8858 15.4214 57.4811 14.6876 57.2501L8.81256 55.5001C8.40405 55.3829 8.05621 55.1132 7.841 54.7468C7.62578 54.3803 7.55966 53.9451 7.65631 53.5313L9.06256 47.5626C9.24755 46.7873 9.23581 45.9782 9.02842 45.2086C8.82103 44.4391 8.42456 43.7336 7.87506 43.1563L3.59381 38.6563C3.30833 38.345 3.14995 37.938 3.14995 37.5157C3.14995 37.0933 3.30833 36.6863 3.59381 36.3751L7.81256 31.9063C8.35661 31.326 8.74728 30.6191 8.94917 29.8497C9.15107 29.0803 9.15782 28.2727 8.96881 27.5001L7.56256 21.5313C7.46483 21.1134 7.53 20.674 7.7448 20.3024C7.9596 19.9309 8.30789 19.6551 8.71881 19.5313L14.5938 17.7813C15.3277 17.5503 15.995 17.1456 16.539 16.6015C17.0831 16.0575 17.4878 15.3902 17.7188 14.6563L19.4688 8.78131C19.586 8.3728 19.8557 8.02496 20.2221 7.80975C20.5886 7.59453 21.0237 7.52841 21.4376 7.62506L27.4063 9.03131C28.1815 9.2163 28.9907 9.20456 29.7603 8.99717C30.5298 8.78978 31.2353 8.39331 31.8126 7.84381L36.2813 3.62506C36.5926 3.33958 36.9996 3.1812 37.4219 3.1812C37.8443 3.1812 38.2513 3.33958 38.5626 3.62506L43.0313 7.84381C43.6086 8.39331 44.3141 8.78978 45.0836 8.99717C45.8532 9.20456 46.6623 9.2163 47.4376 9.03131L53.4063 7.62506C53.8242 7.52733 54.2636 7.5925 54.6352 7.8073C55.0067 8.0221 55.2825 8.37039 55.4063 8.78131L57.1563 14.6563C57.3873 15.3902 57.792 16.0575 58.3361 16.6015C58.8801 17.1456 59.5474 17.5503 60.2813 17.7813L66.1563 19.5313C66.5648 19.6485 66.9127 19.9182 67.1279 20.2846C67.3431 20.6511 67.4092 21.0862 67.3126 21.5001L66.0313 27.5001C65.8463 28.2753 65.8581 29.0845 66.0654 29.854C66.2728 30.6235 66.6693 31.329 67.2188 31.9063L71.4376 36.3751C71.7188 36.6902 71.8716 37.0994 71.8659 37.5218C71.8601 37.9441 71.6961 38.349 71.4063 38.6563Z" fill="#C4C4C4"/>
</g>
<defs>
<clipPath id="clip0_222_332">
<rect width="75" height="75" fill="white"/>
</clipPath>
</defs>
</svg>
