<svg width="75" height="75" viewBox="0 0 75 75" fill="none" xmlns="http://www.w3.org/2000/svg">
<g clip-path="url(#clip0_219_247)">
<path d="M53.125 18.75H59.375C59.7894 18.75 60.1868 18.5854 60.4799 18.2924C60.7729 17.9993 60.9375 17.6019 60.9375 17.1875C60.9375 16.7731 60.7729 16.3757 60.4799 16.0826C60.1868 15.7896 59.7894 15.625 59.375 15.625H53.125C52.7106 15.625 52.3132 15.7896 52.0201 16.0826C51.7271 16.3757 51.5625 16.7731 51.5625 17.1875C51.5625 17.6019 51.7271 17.9993 52.0201 18.2924C52.3132 18.5854 52.7106 18.75 53.125 18.75ZM20.3125 14.0625C20.3125 13.1354 20.0376 12.2291 19.5225 11.4583C19.0074 10.6874 18.2754 10.0866 17.4188 9.73181C16.5623 9.37703 15.6198 9.2842 14.7105 9.46507C13.8012 9.64594 12.966 10.0924 12.3104 10.7479C11.6549 11.4035 11.2084 12.2387 11.0276 13.148C10.8467 14.0573 10.9395 14.9998 11.2943 15.8563C11.6491 16.7129 12.2499 17.4449 13.0208 17.96C13.7916 18.4751 14.6979 18.75 15.625 18.75C16.8682 18.75 18.0605 18.2561 18.9396 17.3771C19.8186 16.498 20.3125 15.3057 20.3125 14.0625ZM15.625 15.625C15.316 15.625 15.0139 15.5334 14.7569 15.3617C14.5 15.19 14.2997 14.946 14.1814 14.6604C14.0632 14.3749 14.0322 14.0608 14.0925 13.7577C14.1528 13.4546 14.3016 13.1762 14.5201 12.9576C14.7387 12.7391 15.0171 12.5903 15.3202 12.53C15.6233 12.4697 15.9374 12.5007 16.2229 12.6189C16.5085 12.7372 16.7525 12.9375 16.9242 13.1944C17.0959 13.4514 17.1875 13.7535 17.1875 14.0625C17.1875 14.4769 17.0229 14.8743 16.7299 15.1674C16.4368 15.4604 16.0394 15.625 15.625 15.625ZM53.125 12.5H65.625C66.0394 12.5 66.4368 12.3354 66.7299 12.0424C67.0229 11.7493 67.1875 11.3519 67.1875 10.9375C67.1875 10.5231 67.0229 10.1257 66.7299 9.83265C66.4368 9.53962 66.0394 9.375 65.625 9.375H53.125C52.7106 9.375 52.3132 9.53962 52.0201 9.83265C51.7271 10.1257 51.5625 10.5231 51.5625 10.9375C51.5625 11.3519 51.7271 11.7493 52.0201 12.0424C52.3132 12.3354 52.7106 12.5 53.125 12.5ZM29.6875 35.9375C29.6875 35.5231 29.5229 35.1257 29.2299 34.8326C28.9368 34.5396 28.5394 34.375 28.125 34.375H25C23.7568 34.375 22.5645 33.8811 21.6854 33.0021C20.8064 32.123 20.3125 30.9307 20.3125 29.6875V26.5625C20.3125 25.3193 20.8064 24.127 21.6854 23.2479C22.5645 22.3689 23.7568 21.875 25 21.875H28.125C28.5394 21.875 28.9368 21.7104 29.2299 21.4174C29.5229 21.1243 29.6875 20.7269 29.6875 20.3125C29.6875 19.8981 29.5229 19.5007 29.2299 19.2076C28.9368 18.9146 28.5394 18.75 28.125 18.75H25C22.928 18.75 20.9409 19.5731 19.4757 21.0382C18.0106 22.5034 17.1875 24.4905 17.1875 26.5625V29.6875C17.1875 30.7134 17.3896 31.7294 17.7822 32.6772C18.1748 33.6251 18.7503 34.4863 19.4757 35.2118C20.9409 36.6769 22.928 37.5 25 37.5H28.125C28.5394 37.5 28.9368 37.3354 29.2299 37.0424C29.5229 36.7493 29.6875 36.3519 29.6875 35.9375ZM65.625 21.875H53.125C52.7106 21.875 52.3132 22.0396 52.0201 22.3326C51.7271 22.6257 51.5625 23.0231 51.5625 23.4375C51.5625 23.8519 51.7271 24.2493 52.0201 24.5424C52.3132 24.8354 52.7106 25 53.125 25H65.625C66.0394 25 66.4368 24.8354 66.7299 24.5424C67.0229 24.2493 67.1875 23.8519 67.1875 23.4375C67.1875 23.0231 67.0229 22.6257 66.7299 22.3326C66.4368 22.0396 66.0394 21.875 65.625 21.875ZM42.1875 53.2812V10.9375C42.1875 10.5231 42.0229 10.1257 41.7299 9.83265C41.4368 9.53962 41.0394 9.375 40.625 9.375C40.2106 9.375 39.8132 9.53962 39.5201 9.83265C39.2271 10.1257 39.0625 10.5231 39.0625 10.9375V53.2812C37.1656 53.6685 35.48 54.7462 34.3325 56.3056C33.185 57.865 32.6575 59.7949 32.8521 61.7211C33.0467 63.6474 33.9495 65.4328 35.3857 66.7311C36.8219 68.0295 38.6889 68.7484 40.625 68.7484C42.5611 68.7484 44.4282 68.0295 45.8643 66.7311C47.3005 65.4328 48.2033 63.6474 48.3979 61.7211C48.5925 59.7949 48.065 57.865 46.9175 56.3056C45.77 54.7462 44.0844 53.6685 42.1875 53.2812ZM40.625 65.625C39.6979 65.625 38.7916 65.3501 38.0208 64.835C37.2499 64.3199 36.6491 63.5878 36.2943 62.7313C35.9395 61.8748 35.8467 60.9323 36.0276 60.023C36.2084 59.1137 36.6549 58.2785 37.3104 57.6229C37.966 56.9674 38.8012 56.5209 39.7105 56.3401C40.6198 56.1592 41.5623 56.252 42.4188 56.6068C43.2754 56.9616 44.0074 57.5624 44.5225 58.3333C45.0376 59.1041 45.3125 60.0104 45.3125 60.9375C45.3125 62.1807 44.8186 63.373 43.9396 64.2521C43.0605 65.1311 41.8682 65.625 40.625 65.625ZM65.625 34.375H53.125C52.7106 34.375 52.3132 34.5396 52.0201 34.8326C51.7271 35.1257 51.5625 35.5231 51.5625 35.9375C51.5625 36.3519 51.7271 36.7493 52.0201 37.0424C52.3132 37.3354 52.7106 37.5 53.125 37.5H65.625C66.0394 37.5 66.4368 37.3354 66.7299 37.0424C67.0229 36.7493 67.1875 36.3519 67.1875 35.9375C67.1875 35.5231 67.0229 35.1257 66.7299 34.8326C66.4368 34.5396 66.0394 34.375 65.625 34.375ZM53.125 31.25H59.375C59.7894 31.25 60.1868 31.0854 60.4799 30.7924C60.7729 30.4993 60.9375 30.1019 60.9375 29.6875C60.9375 29.2731 60.7729 28.8757 60.4799 28.5826C60.1868 28.2896 59.7894 28.125 59.375 28.125H53.125C52.7106 28.125 52.3132 28.2896 52.0201 28.5826C51.7271 28.8757 51.5625 29.2731 51.5625 29.6875C51.5625 30.1019 51.7271 30.4993 52.0201 30.7924C52.3132 31.0854 52.7106 31.25 53.125 31.25ZM48.4375 49.3125V7.8125C48.4375 5.7405 47.6144 3.75336 46.1493 2.28823C44.6841 0.8231 42.697 0 40.625 0C38.553 0 36.5659 0.8231 35.1007 2.28823C33.6356 3.75336 32.8125 5.7405 32.8125 7.8125V49.3125C30.402 50.9262 28.5495 53.2459 27.5089 55.9537C26.4683 58.6615 26.2905 61.6248 27 64.4375C27.6185 66.91 28.9045 69.1649 30.7177 70.9561C32.5309 72.7472 34.8014 74.0056 37.2813 74.5937C38.3766 74.8567 39.4985 74.993 40.625 75C43.6364 75.0071 46.5703 74.0451 48.9928 72.2563C51.4154 70.4674 53.1982 67.9466 54.0776 65.0665C54.9571 62.1863 54.8866 59.0996 53.8765 56.2626C52.8665 53.4256 50.9705 50.9889 48.4688 49.3125H48.4375ZM47.4063 69.5C46.0989 70.5259 44.5771 71.244 42.9541 71.6011C41.3311 71.9581 39.6485 71.945 38.0313 71.5625C35.9129 71.0431 33.9989 69.9004 32.5365 68.2821C31.0742 66.6638 30.1306 64.6441 29.8278 62.4841C29.525 60.3241 29.8768 58.1229 30.8378 56.1648C31.7988 54.2068 33.3248 52.5819 35.2188 51.5C35.4549 51.3637 35.6513 51.1679 35.7883 50.9322C35.9254 50.6964 35.9984 50.4289 36 50.1562V7.8125C36 6.5693 36.4939 5.37701 37.3729 4.49794C38.252 3.61886 39.4443 3.125 40.6875 3.125C41.9307 3.125 43.123 3.61886 44.0021 4.49794C44.8811 5.37701 45.375 6.5693 45.375 7.8125V50.1562C45.3767 50.4289 45.4496 50.6964 45.5867 50.9322C45.7237 51.1679 45.9201 51.3637 46.1563 51.5C47.7061 52.382 49.0152 53.6315 49.9684 55.1385C50.9216 56.6456 51.4896 58.3639 51.6223 60.1421C51.7551 61.9203 51.4485 63.7039 50.7296 65.3358C50.0108 66.9676 48.9017 68.3977 47.5 69.5H47.4063Z" fill="#C4C4C4"/>
</g>
<defs>
<clipPath id="clip0_219_247">
<rect width="75" height="75" fill="white"/>
</clipPath>
</defs>
</svg>
