<svg width="100" height="100" viewBox="0 0 100 100" fill="none" xmlns="http://www.w3.org/2000/svg">
<circle cx="50" cy="50" r="48.5" stroke="#CBCBCB" stroke-width="3"/>
<path d="M39 82.4808L44 82.9616L47 83.202L50 83.4424L53 83.757L56 83.9232L59 84L63 83.9232L65.5 83.6828L68.5 83.4424L74.5 82.9616L81 82.4808L87 82" stroke="#CBCBCB"/>
<path d="M50 60.2404L55.1042 60.4808L58.1667 60.601L61.2292 60.7212L64.2917 60.8785L67.3542 60.9616L70.4167 61L74.5 60.9616L77.0521 60.8414L80.1146 60.7212L86.2396 60.4808L92.875 60.2404L99 60" stroke="#CBCBCB"/>
<path d="M43 72.4808L48.1042 72.9616L51.1667 73.202L54.2292 73.4424L57.2917 73.757L60.3542 73.9232L63.4167 74L67.5 73.9232L70.0521 73.6828L73.1146 73.4424L79.2396 72.9616L85.875 72.4808L92 72" stroke="#CBCBCB"/>
</svg>
