<svg width="76" height="57" viewBox="0 0 76 57" fill="none" xmlns="http://www.w3.org/2000/svg">
<path d="M37.7888 44.0251C33.5638 44.0193 29.5135 42.3383 26.5259 39.3508C23.5384 36.3632 21.8574 32.3129 21.8516 28.0879C21.8516 22.618 24.9912 18.1243 28.9652 12.434C31.2672 9.14008 33.8809 5.40532 36.4033 0.760493C36.9575 -0.253498 38.617 -0.253498 39.1713 0.760493C41.6968 5.40532 44.3074 9.14008 46.6093 12.434C50.5834 18.1243 53.723 22.618 53.723 28.0879C53.7188 32.3129 52.0388 36.3637 49.0516 39.3515C46.0643 42.3393 42.0139 44.0201 37.7888 44.0251ZM37.7888 4.71254C35.6318 8.39376 33.4841 11.4672 31.5506 14.2384C27.7497 19.6799 25.0037 23.6099 25.0037 28.0879C25.0006 35.1417 30.7381 40.8761 37.7888 40.8761C44.8395 40.8761 50.5771 35.1417 50.5771 28.0879C50.5771 23.6099 47.8311 19.6799 44.0302 14.2384C42.0936 11.4672 39.9459 8.39376 37.7888 4.71254Z" fill="#C4C4C4"/>
<path d="M37.7886 50.3235C27.2614 50.3235 9.44727 48.6671 9.44727 42.4509C9.44727 39.6293 12.949 37.5541 20.1571 36.1087C20.5568 36.0503 20.9637 36.1475 21.2938 36.3801C21.624 36.6128 21.8524 36.9632 21.9319 37.3592C22.0115 37.7552 21.9361 38.1666 21.7213 38.5087C21.5065 38.8508 21.1687 39.0975 20.7775 39.1979C14.2558 40.5048 12.6624 42.1045 12.5963 42.4603C12.8955 44.0506 22.056 47.1744 37.7886 47.1744C53.5212 47.1744 62.6818 44.0506 62.9809 42.4414C62.9148 42.1045 61.3214 40.5048 54.7966 39.1979C54.5937 39.1572 54.4009 39.0769 54.2291 38.9616C54.0573 38.8464 53.9098 38.6984 53.7952 38.5262C53.6806 38.354 53.601 38.1608 53.561 37.9578C53.521 37.7549 53.5214 37.546 53.5622 37.3431C53.6029 37.1403 53.6832 36.9475 53.7984 36.7757C53.9137 36.6038 54.0617 36.4564 54.2339 36.3418C54.4061 36.2272 54.5992 36.1476 54.8022 36.1076C55.0052 36.0676 55.2141 36.068 55.4169 36.1087C62.6282 37.5541 66.13 39.6293 66.13 42.4509C66.13 48.6671 48.3159 50.3235 37.7886 50.3235Z" fill="#C4C4C4"/>
<path d="M37.7885 56.6211C19.4705 56.6211 0 51.6551 0 42.4504C0 37.4466 6.17841 33.1041 16.9544 30.5313C17.3607 30.434 17.7891 30.5021 18.1452 30.7206C18.5013 30.9391 18.756 31.2902 18.8533 31.6965C18.9506 32.1028 18.8825 32.5311 18.664 32.8872C18.4455 33.2433 18.0945 33.498 17.6882 33.5953C8.8551 35.702 3.14904 39.1786 3.14904 42.4504C3.14904 47.6621 17.3764 53.4721 37.7885 53.4721C58.2005 53.4721 72.4279 47.6621 72.4279 42.4504C72.4279 39.1786 66.7218 35.702 57.8919 33.5922C57.6907 33.544 57.501 33.4567 57.3336 33.3352C57.1661 33.2137 57.0243 33.0604 56.9161 32.8841C56.8079 32.7077 56.7355 32.5118 56.703 32.3075C56.6705 32.1032 56.6786 31.8945 56.7268 31.6933C56.775 31.4921 56.8623 31.3024 56.9838 31.135C57.1053 30.9675 57.2586 30.8257 57.4349 30.7175C57.6112 30.6093 57.8072 30.5369 58.0115 30.5044C58.2158 30.4719 58.4245 30.48 58.6257 30.5282C69.3985 33.1041 75.5769 37.4466 75.5769 42.4504C75.5769 51.6551 56.1064 56.6211 37.7885 56.6211Z" fill="#C4C4C4"/>
</svg>
